<svg version="1.1" id="Layer_1" xmlns="http://www.w3.org/2000/svg" xmlns:xlink="http://www.w3.org/1999/xlink" x="0px" y="0px"
	 width="100%" viewBox="0 0 560 512" enable-background="new 0 0 560 512" xml:space="preserve">
<path fill="#000000" opacity="1.000000" stroke="none" 
	d="
M236.159027,210.354553 
	C238.486710,202.599060 242.612564,196.134521 246.657867,189.248825 
	C243.288315,187.878220 240.157516,187.658585 237.091858,187.468643 
	C219.525497,186.380295 202.225555,188.981934 184.936493,191.523178 
	C183.196106,191.778992 181.448318,192.714432 179.939957,193.696793 
	C171.846420,198.967865 162.757370,201.022369 153.364059,201.172455 
	C146.419434,201.283417 140.746750,203.472015 135.701157,208.012466 
	C110.174126,230.983871 83.071617,252.020752 55.824207,272.874115 
	C53.697212,274.502014 51.778652,276.763489 48.167812,276.912628 
	C48.593407,273.507690 50.790428,271.641785 52.599346,269.660522 
	C72.477921,247.888123 92.070595,225.852234 112.875076,204.936554 
	C120.036285,197.737045 126.830215,190.167099 133.673080,182.658081 
	C137.527634,178.428284 142.146240,176.027435 147.842072,176.765610 
	C157.459137,178.011932 165.078506,174.268921 172.705215,168.818634 
	C192.598480,154.602371 211.195755,139.105148 226.012466,119.459396 
	C228.537094,116.111938 230.640884,112.533257 231.958435,108.536140 
	C233.084457,105.120041 233.270416,101.693138 231.857941,98.290955 
	C229.248993,92.006851 226.933304,91.162651 221.343002,94.785255 
	C206.248383,104.566864 191.388535,114.725449 176.077957,124.153786 
	C166.369461,130.132324 164.737671,139.485245 163.324829,149.341446 
	C162.469330,155.309372 162.118759,161.418854 159.748871,167.140900 
	C158.011765,166.442459 157.862442,165.265442 157.729782,164.099548 
	C156.752762,155.513107 155.890045,146.911987 154.779068,138.343002 
	C153.970673,132.107971 157.386795,127.438377 160.413986,122.750198 
	C163.667358,117.711792 167.756332,113.316559 172.590561,109.621254 
	C186.353653,99.100723 199.935013,88.346153 214.025467,78.252121 
	C222.243713,72.364784 230.665787,73.851875 239.211914,76.923073 
	C241.318069,77.679955 242.469849,79.647247 243.556686,81.576492 
	C247.665756,88.870560 250.466293,96.707275 253.237442,104.560364 
	C253.901581,106.442436 254.523132,108.343170 255.278564,110.188515 
	C256.317749,112.726990 257.733124,115.517014 260.775421,115.205482 
	C263.935608,114.881889 263.006683,111.425903 263.350769,109.425926 
	C266.502472,91.107292 275.039429,75.581886 287.427094,61.998657 
	C291.366791,57.678707 295.080750,53.242352 297.924438,48.072941 
	C299.427948,45.339821 301.309174,42.283623 305.204468,43.224941 
	C309.039337,44.151676 309.827393,47.349762 310.396667,50.885857 
	C311.739929,59.229496 311.646790,67.778122 314.137421,75.965004 
	C314.990997,78.770813 314.146973,81.531433 312.781403,84.144104 
	C311.001770,87.549057 309.650574,91.108772 309.289368,95.002869 
	C308.928711,98.891174 310.774475,100.293648 314.343384,99.499382 
	C320.238007,98.187523 325.801117,96.101875 330.691772,92.367638 
	C338.771637,86.198288 345.331879,78.761520 349.820068,69.631104 
	C351.602722,66.004654 354.077850,64.380150 358.150360,64.865936 
	C369.270569,66.192413 380.471527,66.008102 391.600128,65.543793 
	C408.210754,64.850746 421.675812,71.524612 433.734253,81.968910 
	C439.154907,86.663910 444.199432,91.790459 447.363831,98.404434 
	C448.418518,100.608849 450.267853,101.243507 452.528503,101.749359 
	C465.329681,104.613846 478.449005,106.651634 489.340698,114.889458 
	C502.227112,124.636002 512.329651,137.029053 522.284363,149.559189 
	C522.873474,150.300720 523.612244,151.136642 522.904846,152.305908 
	C521.257141,152.901260 520.603149,151.424332 519.724487,150.604904 
	C510.212036,141.733719 500.205688,133.487885 489.786224,125.681290 
	C478.876617,117.507523 467.056763,116.175034 454.292664,119.397369 
	C449.161652,120.692711 445.349213,123.591438 443.084656,128.508911 
	C439.930786,135.357651 443.535675,142.019501 450.916168,142.703735 
	C456.270630,143.200165 460.005310,146.873871 463.863556,149.836197 
	C474.910950,158.318176 487.577667,164.672653 496.720367,175.690750 
	C513.396667,195.787781 522.273804,218.748337 522.910583,244.807678 
	C523.242554,258.392426 519.469788,271.112885 513.539978,283.226013 
	C512.847229,284.641083 512.380066,286.387848 510.352112,287.126984 
	C508.993500,285.112274 510.267151,283.229401 510.864532,281.593933 
	C517.142273,264.407562 515.707703,247.521271 508.739532,230.983047 
	C504.644196,221.263199 504.294678,210.487198 499.645996,200.947830 
	C493.870850,189.096786 487.374939,177.853378 474.744385,172.056381 
	C466.215240,168.141769 460.175659,169.511566 457.306213,179.036469 
	C454.069183,189.781631 452.462494,200.779907 451.367554,211.883057 
	C449.893555,226.829819 449.478516,241.874115 450.498413,256.800201 
	C451.866425,276.821014 450.883972,297.184509 456.517212,316.712219 
	C460.435364,330.294617 464.936768,343.709534 466.775055,357.775604 
	C467.832886,365.869843 467.974396,374.029266 466.331482,382.114258 
	C466.133484,383.088776 466.035828,384.132172 464.791199,384.418030 
	C463.566467,384.212189 463.226471,383.169098 463.079742,382.248169 
	C459.391602,359.097107 451.573669,337.196350 443.256775,315.406342 
	C440.839600,309.073456 439.827728,302.217468 437.905518,295.679535 
	C434.400604,283.758453 426.898834,275.735870 414.635193,272.545563 
	C406.411865,270.406342 398.081879,268.981140 389.606079,268.271942 
	C385.674896,267.942993 382.504272,269.154541 379.479584,271.526642 
	C364.987488,282.891937 352.129364,295.797485 340.948242,310.489532 
	C333.809845,319.869507 333.341644,329.651855 335.817352,340.671112 
	C342.340881,369.706726 350.130005,398.408051 357.513428,427.221191 
	C360.847443,440.231873 362.680298,453.629089 365.956421,466.690643 
	C366.162750,467.513153 366.307312,468.307190 365.250793,469.109222 
	C363.104065,467.757965 362.021179,465.415833 361.096222,463.254395 
	C355.795685,450.867706 350.112793,438.472504 347.624908,425.231995 
	C343.363129,402.550659 333.371155,381.639923 328.314728,359.241364 
	C326.705139,352.111237 324.197662,345.186768 322.494965,338.073914 
	C320.245239,328.675873 316.086914,320.202484 310.508484,312.451904 
	C307.814636,308.709167 307.241760,305.180847 308.511597,300.785248 
	C312.465546,287.098633 301.725830,272.416168 287.325806,271.061218 
	C281.564850,270.519165 276.053955,271.125549 270.546021,272.563110 
	C263.781769,274.328583 256.958771,275.727417 250.034836,276.791168 
	C246.082855,277.398315 243.590591,276.103668 241.577026,273.084564 
	C236.214905,265.044647 232.665222,256.163422 231.861710,246.619064 
	C230.839050,234.471725 231.424973,222.312973 236.159027,210.354553 
M411.275635,121.677925 
	C414.607880,120.189789 418.650543,120.241211 421.460999,117.786194 
	C428.411896,111.714294 434.079407,104.177155 442.701782,100.109482 
	C442.123505,98.955368 441.949066,98.252151 441.515625,97.794006 
	C429.879700,85.495369 416.340912,76.402847 399.139069,74.438271 
	C385.874146,72.923309 378.676239,78.332382 375.699493,91.275864 
	C373.458130,101.021568 372.502045,110.925591 372.207703,120.942276 
	C372.056915,126.073624 374.130157,127.507576 378.845245,127.822952 
	C389.962677,128.566544 400.223419,125.260201 411.275635,121.677925 
M408.885101,254.660965 
	C411.358124,254.095352 412.830200,253.011856 411.639984,250.126373 
	C408.657440,242.895844 405.939758,235.550552 402.772827,228.403275 
	C400.207153,222.612793 398.694397,222.075912 392.575928,224.359818 
	C375.581726,230.703430 358.607727,237.103012 340.828308,240.970764 
	C337.796295,241.630356 336.522736,243.553879 336.475128,246.220779 
	C336.326447,254.546539 336.310760,262.878113 336.452179,271.203857 
	C336.507172,274.440430 338.073151,275.235077 341.022736,273.385773 
	C348.740173,268.547180 357.238068,264.599243 366.176758,264.415649 
	C380.143402,264.128693 393.024200,260.510223 405.755371,255.500702 
	C406.526489,255.197281 407.351746,255.031570 408.885101,254.660965 
M321.209442,144.482224 
	C323.700317,142.980896 326.459015,142.348892 329.308472,142.290619 
	C343.693787,141.996384 357.002136,154.845398 357.297363,169.367508 
	C357.362671,172.579895 357.003082,175.800919 356.797546,179.834564 
	C364.666046,174.889496 371.881683,170.251175 379.208862,165.796371 
	C382.550842,163.764542 383.074158,161.711411 380.417084,158.674850 
	C373.950836,151.285110 370.815155,142.444702 369.615417,132.828217 
	C369.376190,130.910736 368.667267,129.262726 366.982117,128.232620 
	C358.626373,123.124916 354.093536,115.639305 352.374451,106.052307 
	C351.523987,101.309517 349.076263,100.510826 344.731110,103.202087 
	C338.626617,106.983040 333.025360,111.452164 328.259735,116.872360 
	C322.655701,123.246086 318.481873,130.343414 317.591095,138.985962 
	C317.340912,141.413605 316.656311,144.213333 321.209442,144.482224 
M427.306213,244.233887 
	C436.415283,258.396729 439.878754,275.286987 449.134705,289.118561 
	C448.644989,275.447113 446.187286,261.632141 446.648895,247.628189 
	C447.103363,233.841278 446.496521,220.058212 447.447052,206.242737 
	C448.396240,192.446121 454.760864,179.705139 455.505890,164.740524 
	C447.515900,167.967804 442.268860,172.451279 438.343140,178.271957 
	C431.119507,188.982452 425.774323,200.621338 423.572693,213.427841 
	C421.800842,223.734299 419.648956,234.242828 427.306213,244.233887 
M242.599014,119.900932 
	C241.905273,118.388893 241.284180,116.837997 240.501007,115.373802 
	C239.290939,113.111511 237.260269,112.558220 235.646027,114.460510 
	C229.161667,122.102013 222.551636,129.763199 224.799484,141.042099 
	C225.750198,145.812500 225.524933,150.628662 224.861008,155.438461 
	C224.475281,158.232986 224.191483,161.047989 224.014481,163.863373 
	C223.770111,167.750519 225.495773,169.712616 229.594345,169.685318 
	C237.076569,169.635452 244.562531,169.544754 252.019287,170.571106 
	C253.873962,170.826385 256.002411,171.281296 258.246185,169.453720 
	C256.303619,160.852081 256.146912,151.689148 252.231094,143.193527 
	C248.822342,135.797989 245.951996,128.154282 242.599014,119.900932 
M284.360077,164.895447 
	C288.022339,164.599182 288.928680,162.733948 287.369110,159.531311 
	C285.374084,155.434311 285.599670,151.304321 286.445068,146.903442 
	C287.987976,138.871429 291.126282,131.325531 293.042511,123.425941 
	C293.873016,120.002243 295.645844,116.614616 294.081726,112.560059 
	C290.247375,114.230919 287.750305,117.151993 285.242279,119.858856 
	C282.020020,123.336601 278.301056,124.374733 273.680847,124.465439 
	C269.068787,124.555984 265.615234,122.118156 261.166290,120.525398 
	C269.902527,135.857605 267.518005,153.042282 269.631744,169.779236 
	C274.892456,168.036804 279.265961,166.588211 284.360077,164.895447 
M393.573120,156.115860 
	C403.489319,146.956482 411.305756,136.272675 417.590240,123.987305 
	C416.458008,123.779427 415.944092,123.520767 415.531097,123.633087 
	C402.502289,127.176842 390.040131,133.437729 375.873291,131.469528 
	C373.288910,131.110504 373.176910,133.417236 373.596558,135.362610 
	C375.123108,142.439194 377.895355,148.988663 382.359589,154.714188 
	C385.649109,158.933075 388.244263,159.283066 393.573120,156.115860 
M367.932434,276.396698 
	C371.150787,273.516937 375.247101,271.618530 378.335205,267.507996 
	C360.911285,265.869324 346.426483,270.723663 334.522461,282.472992 
	C330.131073,286.807312 328.611145,292.811890 328.424805,298.923340 
	C328.346344,301.494812 328.328217,304.843994 330.672638,306.170563 
	C333.412750,307.721039 335.544525,304.881165 337.473114,303.218689 
	C347.540344,294.540497 356.840424,284.992096 367.932434,276.396698 
M210.973877,170.635941 
	C218.426147,166.341751 222.858505,155.525192 221.002350,146.162827 
	C219.983734,141.025070 218.851227,140.479553 214.522247,143.603210 
	C202.793991,152.065979 191.519348,161.085953 181.508209,171.577774 
	C180.321838,172.821091 178.691711,173.955750 179.107315,176.622040 
	C189.481903,174.275024 200.189072,174.481674 210.973877,170.635941 
M425.862274,192.494156 
	C427.483734,188.954147 430.097382,185.851349 430.862854,181.844818 
	C428.588318,180.945633 427.020935,182.156754 425.532318,183.034500 
	C416.621582,188.288666 407.324219,192.857422 397.576691,196.145523 
	C390.317291,198.594330 388.597229,204.487244 386.068207,210.553238 
	C391.935181,207.832672 396.581604,202.381027 404.289093,205.808548 
	C411.153748,208.861298 414.291840,213.922195 415.954132,220.907516 
	C418.941406,211.387497 420.953735,201.828766 425.862274,192.494156 
M284.315765,87.809151 
	C277.425385,95.979439 272.522919,105.232857 268.772278,115.167519 
	C275.089783,117.949799 281.823792,116.528938 287.233429,112.244720 
	C299.153259,102.804634 294.997711,88.816483 297.986877,76.727333 
	C292.326721,79.035744 288.577789,83.185265 284.315765,87.809151 
M440.105377,149.519684 
	C443.010345,144.505066 439.884308,139.875305 439.141418,135.104935 
	C438.866089,133.336990 438.636169,131.172241 436.417603,130.798386 
	C434.527283,130.479813 433.577789,132.258682 432.555298,133.520294 
	C429.298920,137.538116 426.719482,142.003265 424.357239,146.575195 
	C419.418152,156.134415 413.825562,165.235962 406.250366,173.151169 
	C407.612000,173.165649 408.760925,172.992661 409.704346,172.457443 
	C418.952667,167.210571 428.025360,161.688141 436.305115,154.966049 
	C437.883881,153.684296 439.039856,152.081894 440.105377,149.519684 
M343.721710,199.668304 
	C342.703766,208.284836 343.398560,209.483398 351.244293,212.678085 
	C352.934387,213.366257 354.601654,214.113327 356.306641,214.761658 
	C368.144684,219.263229 380.667999,213.670639 384.843109,202.025650 
	C384.088776,201.075394 383.005585,201.315628 382.094757,201.470596 
	C376.142181,202.483368 370.220825,201.766464 364.256897,201.615341 
	C357.431885,201.442398 350.984863,199.042648 343.721710,199.668304 
M357.403412,109.776543 
	C358.666168,115.657349 361.586212,120.366249 368.159515,124.696594 
	C368.755127,109.083572 369.371613,94.653152 375.265747,80.208565 
	C369.139008,80.696663 365.544861,82.888809 362.736420,86.645798 
	C357.759552,93.303650 356.716797,100.905464 357.403412,109.776543 
M299.750275,271.717834 
	C303.816345,274.662689 307.166443,278.353882 310.559479,282.009247 
	C312.101807,283.670837 314.326874,284.778320 315.154236,281.837891 
	C317.510925,273.462402 319.276062,264.938324 318.485046,255.350128 
	C309.717316,258.898529 302.216858,263.381012 293.701721,265.572235 
	C294.871552,268.770752 297.209869,269.850220 299.750275,271.717834 
M401.890717,262.715851 
	C401.246948,263.125336 400.229095,263.153778 400.278717,264.277618 
	C406.303436,267.053467 415.703979,268.752869 419.438751,267.623779 
	C418.509949,263.585449 416.245087,261.129242 411.923065,261.347961 
	C408.790527,261.506531 405.679474,262.089325 401.890717,262.715851 
M285.989349,174.185120 
	C283.463531,174.554672 280.767487,173.811371 278.117493,175.109680 
	C285.190216,180.574173 285.274933,180.709625 292.006653,176.498810 
	C294.496490,174.941360 297.142029,174.580521 299.895020,174.013855 
	C295.474335,172.067322 291.123199,170.589645 285.989349,174.185120 
M320.241241,102.503822 
	C312.468445,101.251457 305.599030,108.055359 308.138062,115.319252 
	C312.848389,111.431908 317.827545,108.239426 320.241241,102.503822 
M457.222992,157.067337 
	C461.429657,158.804733 465.636322,160.542130 469.925995,162.313797 
	C470.058685,161.647034 470.168945,161.435699 470.107269,161.353745 
	C465.716766,155.519867 458.084900,154.833206 452.718170,150.480194 
	C451.642731,149.607864 450.237396,150.894470 449.670746,152.229858 
	C448.992737,153.827652 449.868744,154.786987 451.266174,155.274124 
	C452.977600,155.870712 454.744446,156.308273 457.222992,157.067337 
M326.178528,331.341003 
	C326.775208,333.015259 327.371918,334.689545 327.968597,336.363831 
	C326.574219,328.741577 324.655243,321.283020 322.412689,313.923065 
	C321.710144,311.617371 320.038818,309.707428 316.096466,309.494202 
	C320.168671,316.754883 323.390198,323.550598 326.178528,331.341003 
M289.471832,75.860985 
	C292.191956,72.517036 298.828613,72.098671 297.294708,64.597115 
	C293.500397,69.779030 285.587250,70.180000 285.374817,77.886787 
	C287.419556,78.626846 287.972260,77.041512 289.471832,75.860985 
M143.582169,188.188538 
	C148.689514,182.843628 155.974426,183.993515 162.249268,181.864532 
	C157.518646,181.468811 152.791183,181.090469 148.158463,181.590317 
	C144.547806,181.979904 142.690994,184.990524 141.913208,188.414902 
	C141.803497,188.897858 142.681015,188.679047 143.582169,188.188538 
M356.458588,218.391983 
	C354.974426,217.675690 353.467316,217.002899 352.010681,216.234451 
	C348.512024,214.388794 347.117371,215.695389 347.241486,219.350143 
	C347.284515,220.616623 346.800354,222.022522 348.485504,223.203049 
	C350.995422,223.058624 353.680756,222.410461 356.222961,221.204941 
	C357.281738,220.702881 358.480591,220.076675 356.458588,218.391983 
M283.533966,252.072098 
	C277.662567,252.191696 271.924316,253.872299 265.631744,253.151062 
	C271.491730,259.476837 275.227081,258.341888 283.533966,252.072098 
M343.328003,161.767120 
	C342.581848,165.132385 345.295441,165.874878 347.403870,166.486404 
	C349.616302,167.128098 351.265839,167.971405 351.603271,170.662338 
	C353.450287,168.691223 353.204712,167.054062 352.535339,165.210632 
	C350.914398,160.746536 347.229919,161.803497 343.328003,161.767120 
M455.616119,107.368942 
	C453.422455,107.250519 451.128754,105.474152 448.139130,108.213516 
	C454.747467,108.984543 460.487732,109.654289 466.228027,110.324036 
	C466.263245,110.137878 466.298492,109.951721 466.333740,109.765564 
	C463.016602,109.017014 459.699463,108.268463 455.616119,107.368942 
M318.673157,299.750977 
	C317.081177,300.544128 315.352325,301.237152 315.814819,303.645233 
	C317.529419,304.852997 319.246979,305.261627 321.156372,304.043427 
	C321.297821,302.222626 320.816528,300.787201 318.673157,299.750977 
z"/>
</svg>