<svg version="1.1" id="Layer_1" xmlns="http://www.w3.org/2000/svg" xmlns:xlink="http://www.w3.org/1999/xlink" x="0px" y="0px"
	 width="100%" viewBox="0 0 736 1009" enable-background="new 0 0 736 1009" xml:space="preserve">
<path fill="#FFFFFF" opacity="1.000000" stroke="none" 
	d="
M69.166946,295.054718 
	C69.250977,296.749664 69.335014,298.444580 69.042374,300.582214 
	C68.380974,301.068237 68.096245,301.111633 67.497421,301.293762 
	C66.124443,304.955627 65.065567,308.478699 64.006683,312.001770 
	C62.646023,315.731903 61.285366,319.462067 59.647263,323.737793 
	C59.237152,324.851807 59.104496,325.420258 58.971840,325.988708 
	C58.284916,327.739685 57.597988,329.490692 56.593536,331.855835 
	C56.506802,333.613068 56.737595,334.756134 57.062222,336.129700 
	C57.331848,336.657623 57.580307,336.869995 57.901424,336.997314 
	C51.441071,342.381012 50.561661,350.498413 47.847260,357.692383 
	C44.681301,366.083069 41.503483,374.485260 38.844036,383.041992 
	C37.978374,385.827240 38.724545,389.113464 38.426277,392.570892 
	C37.716179,392.984283 37.313313,392.997375 36.685516,392.725128 
	C35.850788,392.747314 34.888939,392.903748 34.682701,393.384369 
	C29.532688,405.386902 24.447353,417.417358 19.428576,429.475372 
	C19.210747,429.998718 19.734093,430.830566 19.755077,431.830200 
	C19.756241,432.810242 19.914501,433.478790 20.072762,434.147339 
	C17.785664,436.857483 14.975505,439.282806 13.314392,442.333771 
	C9.152290,449.978180 5.510643,457.906006 1.330116,465.860046 
	C1.000000,311.112518 1.000000,156.225037 1.000000,1.000000 
	C46.687008,1.000000 92.374847,1.000000 138.816345,1.423256 
	C136.516113,2.429144 133.462219,3.011776 130.408325,3.594408 
	C130.286194,4.005507 130.164078,4.416605 130.041946,4.827704 
	C135.557816,7.188380 141.073669,9.549056 146.716278,12.467051 
	C145.359497,13.182678 143.599380,13.934976 142.440735,13.395494 
	C137.666718,11.172612 132.604187,9.145147 128.562698,5.904695 
	C125.205147,3.212631 122.163666,2.570336 118.201401,3.236239 
	C118.840988,4.963606 119.403969,6.484080 119.650291,7.971337 
	C118.909370,7.951104 118.485107,7.964087 117.789597,7.758718 
	C116.462486,6.092199 115.406616,4.644033 113.609207,2.178820 
	C114.396347,8.386140 114.858078,13.298237 115.750092,18.130909 
	C115.962097,19.279512 117.614632,20.162222 118.444229,21.609112 
	C118.195473,22.670002 118.107048,23.289017 117.559952,23.952965 
	C117.049477,25.777180 116.762062,27.586487 116.984367,29.330828 
	C118.354713,40.082985 120.821510,50.644382 122.786469,61.291958 
	C124.861168,72.534088 127.589668,83.654015 129.838882,94.866180 
	C130.844421,99.878761 131.377029,104.986214 132.252548,110.920059 
	C134.100479,107.708588 135.400375,105.449509 136.873413,103.569885 
	C137.764389,104.318336 138.482224,104.687332 139.120239,105.411369 
	C137.706985,108.482330 136.373581,111.198242 135.040176,113.914154 
	C135.313522,114.145164 135.586868,114.376175 135.860199,114.607185 
	C137.582443,113.225174 139.304672,111.843163 141.407471,110.659355 
	C142.192841,111.578735 142.597672,112.299911 142.756226,113.331467 
	C143.029053,113.984367 143.684769,114.731560 144.046951,114.609283 
	C150.385956,112.469284 156.689041,110.222900 163.175415,108.320419 
	C164.135406,109.189621 164.919922,109.738029 165.502014,110.572128 
	C162.986649,112.965698 160.673721,115.073586 158.025742,116.977432 
	C157.387344,116.353706 157.084000,115.934013 156.963013,115.242508 
	C158.741333,112.069588 156.485001,113.489754 155.663742,113.742928 
	C149.513275,115.638969 143.343964,117.492287 137.282776,119.646515 
	C135.778320,120.181221 134.100021,121.511345 133.440140,122.916565 
	C130.492050,129.194489 127.883621,135.631927 124.848694,142.008789 
	C124.342308,142.003525 124.139763,142.001205 123.950058,141.651260 
	C123.658104,140.663574 123.353294,140.023514 123.048485,139.383469 
	C122.028221,140.577881 121.007950,141.772308 119.829163,143.263855 
	C113.473396,151.668503 107.227898,159.740158 101.139900,167.928909 
	C100.377556,168.954300 100.447067,170.598114 99.901031,172.015015 
	C99.375481,172.221344 99.155403,172.442886 98.639389,172.692688 
	C95.417915,175.891495 92.517921,179.096313 89.791695,182.442688 
	C89.507057,182.792084 90.250969,183.979431 90.067177,184.865707 
	C89.315987,185.009857 89.015274,185.066284 88.551659,185.158203 
	C88.388763,185.193665 88.096817,185.032608 87.858070,185.063751 
	C87.301003,185.218918 87.077736,185.439255 86.864075,186.090942 
	C82.887352,191.391174 78.860268,196.257065 75.138351,201.346130 
	C70.213066,208.080612 65.526581,214.989746 60.759995,221.874054 
	C60.782543,221.924316 60.892483,221.931229 60.507954,221.861588 
	C60.454060,222.212692 60.784698,222.633438 61.304554,223.149109 
	C61.493774,223.244034 61.915886,223.276917 61.950539,223.487549 
	C61.985195,223.698196 62.050037,224.120163 61.844093,224.397888 
	C52.244404,228.514664 50.074390,238.151535 44.213238,245.311752 
	C46.050995,245.617355 47.127392,245.796356 47.931675,246.221985 
	C40.167679,247.794250 39.269238,254.814514 35.175957,260.037506 
	C36.722103,259.969177 37.349113,259.941467 37.976631,260.197723 
	C37.977760,260.860260 37.978382,261.238831 37.645905,261.776886 
	C35.337254,263.560852 32.737980,264.807098 31.486492,266.870697 
	C22.795883,281.200867 14.272560,295.636719 5.981092,310.201202 
	C4.348736,313.068542 3.132307,316.638794 3.118331,319.890869 
	C2.932179,363.207397 2.992635,406.525024 3.005837,449.842377 
	C3.006193,451.009705 3.165296,452.176971 3.334605,454.500031 
	C5.657300,449.233032 7.437992,445.165100 9.242631,441.107758 
	C19.513079,418.017029 32.862247,396.040741 35.262543,370.003387 
	C35.941734,370.011993 36.329823,370.014435 36.739128,370.320831 
	C36.760345,371.556030 36.760345,372.487274 36.760345,373.418488 
	C37.092072,373.489288 37.423798,373.560089 37.755527,373.630890 
	C40.157768,366.452545 42.560009,359.274231 44.683994,351.742371 
	C43.847939,351.177765 43.290138,350.966736 42.871582,350.399567 
	C45.642696,345.133423 48.863403,340.443115 50.793049,335.271149 
	C56.013744,321.278198 60.685745,307.080505 65.936493,292.996460 
	C67.254036,293.704132 68.210487,294.379425 69.166946,295.054718 
M122.030243,115.346626 
	C121.689110,115.198448 121.347977,115.050270 120.654495,114.335754 
	C116.774765,110.888168 112.895035,107.440582 108.678612,103.378738 
	C107.755394,103.264633 106.832184,103.150520 105.982666,102.302574 
	C102.320465,98.197945 98.658272,94.093315 94.753677,89.527100 
	C94.279221,89.342834 93.804771,89.158569 93.170403,88.251961 
	C89.065323,83.698303 85.338631,78.715286 80.769264,74.688469 
	C73.330727,68.133148 65.360466,62.178452 57.542507,56.062435 
	C57.010380,55.646152 55.876526,55.999054 54.447960,56.006413 
	C54.256424,56.009544 54.064888,56.012680 53.455223,55.459076 
	C49.697853,51.045536 45.940479,46.632000 42.183105,42.218464 
	C41.683929,42.567558 41.184753,42.916656 40.685574,43.265755 
	C41.156742,45.449493 41.627911,47.633236 41.482021,50.690308 
	C40.667568,49.911594 39.124321,49.106464 39.151440,48.358253 
	C39.421677,40.902843 35.238907,36.111568 29.879604,31.865267 
	C28.480438,30.756676 27.382198,29.268282 26.771076,27.581015 
	C27.204113,26.729778 27.637150,25.878542 28.835182,25.159449 
	C32.221821,27.123045 35.608463,29.086641 38.975094,31.584700 
	C38.974476,31.762980 38.973862,31.941257 38.524269,32.324417 
	C38.451904,32.867867 38.118301,33.714748 38.345451,33.910309 
	C43.763367,38.574883 48.580349,44.514023 56.992424,43.691650 
	C56.989220,44.058315 56.986019,44.424976 56.174099,44.998516 
	C54.844532,44.900753 53.514965,44.802994 52.185398,44.705235 
	C60.209843,52.148827 68.478462,58.705574 76.879089,65.088577 
	C77.876160,65.846169 79.594810,65.654091 81.054520,66.557884 
	C81.073013,66.777107 81.091507,66.996330 81.019569,67.899193 
	C86.674187,73.351898 92.328804,78.804596 98.045044,84.811783 
	C98.598335,85.211983 99.151627,85.612183 99.845253,86.710564 
	C101.949417,89.015694 103.945076,91.433281 106.186630,93.596001 
	C108.695396,96.016563 111.426933,98.206215 114.394753,100.838310 
	C114.667892,101.021713 114.968964,101.114342 114.973106,101.808235 
	C118.728874,105.982300 122.484642,110.156357 126.240410,114.330421 
	C126.814491,114.042152 127.388573,113.753891 127.962654,113.465630 
	C126.664146,104.907677 125.365639,96.349724 123.953445,87.068291 
	C123.541382,86.180763 123.129318,85.293236 122.779228,83.633553 
	C121.136375,75.563072 119.493515,67.492584 117.850662,59.422100 
	C117.522438,59.434200 117.194206,59.446301 116.865982,59.458401 
	C116.554398,60.303070 116.242821,61.147739 115.084305,61.919819 
	C114.801811,61.897945 114.519310,61.876068 114.340714,61.001160 
	C117.133865,54.108746 115.094963,47.145565 114.527443,40.221336 
	C114.483116,39.680527 113.060211,39.252705 112.063713,37.723511 
	C111.992432,37.373871 111.921158,37.024227 112.234734,35.946838 
	C112.551018,33.025173 112.867294,30.103504 113.167465,27.330616 
	C111.169090,27.204531 110.053177,27.134123 108.680153,26.307581 
	C109.587914,25.274456 110.495682,24.241331 111.787506,22.771114 
	C109.437531,22.418718 107.723061,22.161621 106.022247,21.410295 
	C106.062752,21.081093 106.061043,20.752108 106.929657,20.053488 
	C108.486023,20.053488 110.042389,20.053488 111.610222,20.053488 
	C111.123421,14.082954 110.675438,8.588416 110.191689,2.655287 
	C108.378426,3.926919 106.817596,5.021527 104.287796,6.008694 
	C103.641060,5.944854 102.994324,5.881013 102.730896,5.166291 
	C102.788177,4.447305 102.845467,3.728319 102.902756,3.009334 
	C101.294167,3.208474 99.553162,3.077108 98.098335,3.660013 
	C88.137634,7.650978 78.227745,11.769929 68.341095,15.941515 
	C67.781281,16.177725 67.570862,17.242023 66.658279,18.106920 
	C66.438850,18.413546 66.219421,18.720171 65.080765,19.215454 
	C59.113403,19.453333 53.137325,20.011942 47.180836,19.850000 
	C39.275848,19.635084 31.386152,18.857727 22.982742,18.018755 
	C22.708622,18.095957 22.434502,18.173159 22.160381,18.250359 
	C22.385212,18.554350 22.610043,18.858341 23.124529,19.786030 
	C24.755669,21.516960 26.386806,23.247890 27.189201,25.101322 
	C26.130556,25.399097 25.071911,25.696873 23.436388,25.833973 
	C22.574377,25.551853 21.712368,25.269732 20.280207,24.986368 
	C19.900120,24.986807 19.520033,24.987246 18.855888,24.299091 
	C17.150127,17.890190 12.586400,14.726610 9.135111,17.591421 
	C9.022918,18.905266 8.910250,20.224661 8.809624,21.403048 
	C7.819935,19.614622 6.870584,17.899088 5.996612,15.445051 
	C5.929872,14.352342 5.863133,13.259632 5.796393,12.166923 
	C5.196387,13.430483 4.596380,14.694044 3.231393,16.387550 
	C3.231393,36.755230 3.231393,57.122910 3.231393,77.490593 
	C5.521618,71.765335 7.331056,65.914932 7.881357,59.948402 
	C8.735896,50.683239 8.733133,41.339001 9.727484,31.980331 
	C10.150357,31.987322 10.573230,31.994314 11.216035,32.916389 
	C11.271637,40.209419 11.891046,47.554359 11.225621,54.780998 
	C10.548645,62.133087 9.970286,70.021843 6.873122,76.490234 
	C2.983026,84.614647 2.701688,92.489174 3.218134,101.586937 
	C5.272532,100.895599 6.901016,100.347580 9.213046,99.929832 
	C9.675313,99.962540 10.137580,99.995247 11.207476,100.649208 
	C18.176487,101.113152 25.145498,101.577087 32.636848,102.087296 
	C32.985214,102.066399 33.333580,102.045502 34.350552,102.572449 
	C37.483746,102.777519 40.614841,103.099785 43.750698,103.155853 
	C47.122120,103.216141 50.498005,103.026611 54.402138,103.011345 
	C54.756145,103.049454 55.110149,103.087563 55.723755,103.041611 
	C55.723755,103.041611 55.993832,103.002670 55.809582,103.714157 
	C56.209305,103.911438 56.609024,104.108727 57.719704,104.658440 
	C60.168839,104.952499 62.610798,105.378792 65.068649,105.512177 
	C69.710190,105.764061 74.360863,105.847458 79.773552,106.073494 
	C80.029114,106.094360 80.284683,106.115219 80.715675,106.833412 
	C83.849442,107.238083 86.983215,107.642754 90.694710,108.064613 
	C91.079781,108.051994 91.464851,108.039383 92.091431,108.764610 
	C95.729393,109.181274 99.367348,109.597939 103.487007,110.029587 
	C103.487007,110.029587 103.968544,110.010025 104.233345,110.726799 
	C109.848549,112.630547 115.463745,114.534302 121.266617,116.572304 
	C121.266617,116.572304 121.495735,116.599716 121.932770,116.820686 
	C122.209129,116.714371 122.485481,116.608055 122.761841,116.501747 
	C122.534294,116.308006 122.306747,116.114265 122.030243,115.346626 
M105.548637,120.140823 
	C105.363739,120.102661 105.178848,120.064499 104.805435,119.355476 
	C103.453850,115.644287 100.058777,115.600090 96.502319,115.231041 
	C96.093040,115.799179 95.683762,116.367310 94.813461,116.355476 
	C90.537376,112.259506 85.319466,112.337601 79.293060,113.034157 
	C78.842476,113.031990 78.391899,113.029831 77.360603,112.577827 
	C70.293495,111.624550 63.226387,110.671280 55.986176,110.589966 
	C55.939007,110.882515 55.891842,111.175056 55.199734,111.093979 
	C49.249111,105.955559 42.055691,107.586830 35.195930,107.462662 
	C34.389015,107.448059 33.534786,108.118515 32.770203,108.007027 
	C27.803530,107.282822 22.855593,106.430107 17.309469,105.276459 
	C16.388529,105.774620 15.467587,106.272774 13.665580,106.933876 
	C13.371899,106.988228 13.078217,107.042580 12.178628,106.712891 
	C9.299353,105.820793 6.420076,104.928696 2.622186,103.751984 
	C3.015840,109.677124 2.614292,114.282616 3.752003,118.469879 
	C5.908479,126.406639 8.947563,134.103592 10.747529,141.958572 
	C10.457155,141.983810 10.166782,142.009064 9.479866,141.445236 
	C7.617976,136.180466 5.756085,130.915710 3.894195,125.650940 
	C3.667906,125.754219 3.441616,125.857498 3.215327,125.960777 
	C3.215327,186.120117 3.215327,246.279465 3.215327,306.619507 
	C15.209489,286.071716 26.947727,265.699036 39.010578,245.520416 
	C41.406078,241.513229 43.171936,237.756866 43.190361,233.025391 
	C43.529881,233.005814 43.869404,232.986237 44.486286,233.538330 
	C44.999249,233.812256 45.512215,234.086182 46.025181,234.360107 
	C48.549126,229.014969 54.270908,225.374649 54.354996,218.677673 
	C54.361885,218.128677 55.618370,217.595398 56.427361,217.735199 
	C56.901962,217.487961 57.376568,217.240738 58.293163,216.449799 
	C59.022026,214.823730 59.750889,213.197678 60.908756,211.037949 
	C61.991062,210.051132 63.073368,209.064331 64.721100,207.728226 
	C66.337273,205.618881 67.913994,203.477875 69.576347,201.405579 
	C77.282005,191.799713 86.349648,182.758926 84.009178,168.430161 
	C84.871742,171.885071 85.734314,175.339996 86.657524,179.037811 
	C89.672249,175.344391 92.950005,171.565323 95.911819,167.553024 
	C96.777809,166.379898 96.744553,164.542938 97.810776,162.999619 
	C98.268143,162.973648 98.725510,162.947678 99.778694,162.578217 
	C101.440002,160.402954 103.187164,158.287292 104.746361,156.041153 
	C109.238838,149.569458 117.480896,144.538620 113.048332,134.541519 
	C112.737885,133.841339 113.637100,132.604813 114.626114,132.053680 
	C115.395775,134.466827 116.165436,136.879990 117.218750,140.182510 
	C120.807266,134.349472 123.874641,129.363525 127.604156,123.301285 
	C120.563568,121.454720 114.280220,119.806747 107.287407,118.040337 
	C106.892975,118.703636 106.498550,119.366936 105.548637,120.140823 
M81.446243,9.605915 
	C81.895706,9.196045 82.345161,8.786175 83.283722,7.952629 
	C86.393585,6.451601 89.503456,4.950572 92.909027,3.306814 
	C63.579308,3.306814 34.745068,3.306814 5.541232,3.306814 
	C9.078856,6.531311 12.150497,9.516683 15.439752,12.239139 
	C16.782385,13.350413 18.577467,14.542246 20.199200,14.589826 
	C33.102531,14.968401 46.060379,15.813073 58.904556,14.994192 
	C66.366394,14.518462 73.649590,11.240749 81.446243,9.605915 
M8.526814,13.064804 
	C9.257113,13.614181 9.987413,14.163557 10.717713,14.712934 
	C10.993836,14.144057 11.269959,13.575182 11.546083,13.006306 
	C10.455803,12.838195 9.365522,12.670083 8.526814,13.064804 
z"/>

<path fill="#FFFFFF" opacity="1.000000" stroke="none" 
	d="
M310.078247,5.036510 
	C298.269257,12.983795 286.456848,20.926048 274.658020,28.888407 
	C273.763275,29.492214 272.964844,30.238762 271.221558,31.645029 
	C277.633575,32.174591 282.989075,32.627308 288.346375,33.057537 
	C310.210999,34.813400 332.102356,36.298313 353.927032,38.457386 
	C361.548737,39.211391 367.897186,36.125355 374.573212,33.925606 
	C401.661957,24.999880 428.673676,15.840219 455.713898,6.767201 
	C458.583527,5.804344 461.453949,4.843878 464.257690,3.027138 
	C460.613342,3.027138 456.963470,3.143075 453.327484,2.968527 
	C451.926361,2.901263 450.556946,2.173676 449.586548,1.373474 
	C461.354218,1.000000 472.708466,1.000000 484.531342,1.000001 
	C481.720428,2.169665 478.410339,3.260962 475.167786,4.525543 
	C468.683685,7.054286 462.358185,10.059407 455.743774,12.166562 
	C447.339722,14.843875 438.594086,16.456488 430.208191,19.181839 
	C412.063965,25.078592 394.036224,31.336895 375.994720,37.545795 
	C338.849548,50.329128 301.716309,63.147141 264.598114,76.008621 
	C238.761505,84.961021 212.951538,93.990715 187.157120,103.063896 
	C185.673309,103.585823 184.162354,104.570366 183.128418,105.747490 
	C173.484222,116.727165 163.382980,127.367645 154.505341,138.943268 
	C142.274078,154.891693 130.493362,171.150482 115.295181,184.833405 
	C114.515144,184.460861 114.178490,184.201096 113.967300,183.624481 
	C120.432922,176.280319 127.014999,169.454391 133.065628,162.186050 
	C148.237183,143.961151 163.168182,125.536003 178.458588,107.081711 
	C178.731354,106.733688 178.741196,106.495125 178.751053,106.256569 
	C178.338989,106.309372 177.926926,106.362175 177.150467,106.534134 
	C173.092194,107.864349 169.398331,109.075394 165.704453,110.286438 
	C164.919922,109.738029 164.135406,109.189621 163.400482,108.036812 
	C169.006760,105.394440 174.563431,103.356468 179.898163,101.399887 
	C178.853638,98.036324 177.958694,95.154480 176.797653,91.415733 
	C165.520889,98.625015 154.261703,105.823059 143.002502,113.021103 
	C142.597672,112.299911 142.192841,111.578735 141.645782,110.399437 
	C145.463577,107.063988 149.524200,104.311066 153.325516,101.237457 
	C154.548340,100.248726 155.087692,98.414673 156.361938,96.991791 
	C163.533859,96.582130 168.081543,92.210030 173.012695,87.947250 
	C173.508789,87.533455 173.757004,87.252815 174.391098,87.021255 
	C177.183090,85.717262 179.589203,84.364204 182.022980,82.677155 
	C182.060532,82.119972 182.070435,81.896782 182.464844,81.747192 
	C184.412384,81.517448 186.180405,81.582458 187.502731,80.846596 
	C193.034241,77.768402 198.431992,74.449913 203.939499,70.737343 
	C204.026123,69.932266 204.052002,69.609337 204.463623,69.292816 
	C205.800598,69.381088 206.995911,69.876633 207.665649,69.481461 
	C215.133347,65.075134 222.519897,60.531227 229.695923,56.165783 
	C228.925507,55.163849 228.466644,54.567097 228.380493,53.841381 
	C232.060104,52.700161 235.367020,51.687908 238.673920,50.675652 
	C238.538254,50.186512 238.402588,49.697372 238.266922,49.208233 
	C233.742401,48.490799 229.158707,48.028210 224.707565,46.994770 
	C218.408295,45.532253 212.206863,43.648426 205.980255,41.986027 
	C205.996887,42.027386 206.084229,42.009533 206.179810,41.604797 
	C205.844498,41.467941 205.413574,41.735825 204.631866,41.979668 
	C203.813812,41.991875 203.346542,42.028122 202.599411,41.885025 
	C199.209167,39.055714 196.098785,36.405739 192.988831,33.371864 
	C192.943649,30.943483 192.709061,28.764187 195.973694,29.319044 
	C198.143661,31.675760 199.867233,34.252758 202.276611,35.630211 
	C212.460541,41.452408 223.714935,44.280174 235.198608,45.975311 
	C239.602463,46.625374 244.879440,48.256607 247.470215,43.019222 
	C242.972900,43.019222 238.358475,43.207630 233.764603,42.980480 
	C223.827515,42.489136 214.273392,40.354115 207.025726,33.045635 
	C204.051010,30.045952 201.275879,27.886467 196.998169,27.655472 
	C198.272736,24.711304 199.557144,22.185175 201.086151,19.873016 
	C202.839310,24.915312 205.481613,27.994761 211.189636,27.436708 
	C213.742554,27.187122 216.385437,27.857988 218.978729,28.363844 
	C218.967072,28.953215 218.964203,29.289879 218.564713,29.670887 
	C214.921310,29.571117 211.674515,29.427006 208.119888,29.269232 
	C217.195847,41.917271 251.364090,44.326984 261.867279,33.249355 
	C258.144196,32.776466 254.579575,32.323708 251.016754,31.596413 
	C251.019989,30.955950 251.021439,30.590029 251.442947,30.182770 
	C260.061249,31.475109 267.600372,31.668751 274.610443,25.293980 
	C280.955475,19.523943 288.689087,15.293816 295.726379,10.267040 
	C299.825378,7.339122 303.759186,4.179942 307.807312,1.611251 
	C308.590942,3.077290 309.334595,4.056901 310.078247,5.036510 
M234.902878,56.824226 
	C231.585068,59.021851 228.264603,61.215454 224.950043,63.417965 
	C218.671936,67.589722 217.469803,70.682358 219.326752,77.855392 
	C221.030945,84.438347 224.359573,86.251747 230.732788,84.014427 
	C232.543884,83.378647 234.310043,82.614899 236.103256,81.907288 
	C231.956253,72.244675 231.974609,69.603043 236.475739,56.924236 
	C236.155777,56.793686 235.835831,56.663132 234.902878,56.824226 
M197.654236,90.077736 
	C199.065048,91.375603 200.848282,94.023537 201.826660,93.753670 
	C208.506546,91.911110 215.017303,89.455399 220.311584,87.634575 
	C218.520599,80.939514 216.998199,75.248459 215.413422,69.324203 
	C209.887192,74.403580 201.103760,75.560875 196.384659,82.886032 
	C195.772903,82.478424 194.894150,81.574051 194.589508,81.737801 
	C190.081436,84.160873 185.335510,86.328773 181.367081,89.468582 
	C179.945999,90.592934 179.871323,94.248528 180.283371,96.551804 
	C180.533920,97.952385 183.183090,100.211380 184.248718,99.957832 
	C189.103210,98.802757 193.778320,96.893730 197.631454,95.562141 
	C197.357559,93.056709 197.179428,91.427299 197.654236,90.077736 
M319.422089,53.051926 
	C327.181122,50.319473 334.940155,47.587017 342.699188,44.854565 
	C342.587677,44.390690 342.476196,43.926811 342.364685,43.462936 
	C332.113861,44.190990 321.867676,44.994293 311.611206,45.631367 
	C290.549957,46.939571 269.482178,48.143238 248.420776,49.449234 
	C247.004044,49.537083 245.355652,49.752632 244.259689,50.533176 
	C236.124390,56.327221 233.251480,72.535950 238.985992,81.129875 
	C265.481110,71.864929 292.073273,62.566044 319.422089,53.051926 
M332.492645,38.927155 
	C314.176636,37.438599 295.836945,36.183762 277.557709,34.332367 
	C271.315643,33.700153 265.922821,33.833847 261.039429,38.406242 
	C257.952515,41.296528 254.179398,43.453922 250.714066,45.940044 
	C250.969971,46.477333 251.225876,47.014618 251.481781,47.551907 
	C280.017029,45.246864 308.552246,42.941818 337.087494,40.636776 
	C337.083527,40.203598 337.079590,39.770424 337.075653,39.337246 
	C335.854675,39.210464 334.633728,39.083683 332.492645,38.927155 
z"/>


<path fill="#FFFFFF" opacity="1.000000" stroke="none" 
	d="
M150.987000,12.877320 
	C165.193878,13.500945 179.323944,16.989658 193.646423,13.598607 
	C197.730179,12.631720 201.220230,11.654115 202.804840,7.215466 
	C203.293961,5.845451 204.817398,4.844698 205.950623,3.581953 
	C202.644409,2.992894 199.596085,2.449786 196.773895,1.453339 
	C201.689255,1.000000 206.378510,1.000000 211.533875,1.000001 
	C212.235870,1.520791 212.471756,2.041579 212.707642,2.562366 
	C205.045593,5.386230 204.069916,12.997631 200.874359,19.351067 
	C199.557144,22.185175 198.272736,24.711304 196.767365,27.755386 
	C196.311859,28.511406 196.077316,28.749475 195.842773,28.987541 
	C192.709061,28.764187 192.943649,30.943483 192.643555,33.448631 
	C188.295288,38.829315 184.292709,43.749325 180.142181,48.302017 
	C179.219742,47.252853 178.445251,46.571007 177.784515,45.562958 
	C180.285828,41.833260 182.673401,38.429760 185.024597,35.015869 
	C184.988235,35.005474 184.988281,35.080822 185.262039,35.102299 
	C185.671478,34.791557 185.807144,34.459339 185.890839,33.854713 
	C185.567383,33.099194 185.295883,32.616089 185.299438,31.916443 
	C183.382339,30.473051 181.190186,29.246201 178.997559,27.676201 
	C179.005432,26.646919 179.013779,25.960785 179.458878,25.221260 
	C181.547852,25.095716 183.260147,25.277576 184.840988,24.903687 
	C189.547562,23.790525 195.392776,24.146633 196.154434,16.718479 
	C180.825836,19.279152 165.790100,18.256443 150.869537,15.014347 
	C150.941406,14.018302 150.964203,13.447811 150.987000,12.877320 
M190.287964,28.397137 
	C189.995514,28.614594 189.703049,28.832048 189.410583,29.049501 
	C189.585892,29.233845 189.761200,29.418188 189.936523,29.602524 
	C190.169266,29.320534 190.402008,29.038542 190.287964,28.397137 
z"/>
<path fill="#FFFFFF" opacity="1.000000" stroke="none" 
	d="
M186.531464,1.000000 
	C186.910278,1.636343 186.821762,2.829518 186.730652,2.829718 
	C179.644043,2.845278 172.557175,2.771089 165.471085,2.656902 
	C165.371521,2.655297 165.281509,2.061769 165.593521,1.372252 
	C172.687637,1.000000 179.375290,1.000000 186.531464,1.000000 
z"/>
<path fill="#FFFFFF" opacity="1.000000" stroke="none" 
	d="
M340.533142,0.999998 
	C341.190948,1.530503 341.381866,2.061011 341.572784,2.591520 
	C335.776459,2.309166 329.980103,2.026809 324.591888,1.372226 
	C330.022095,1.000000 335.044189,1.000000 340.533142,0.999998 
z"/>
<path fill="#FFFFFF" opacity="1.000000" stroke="none" 
	d="
M307.807312,1.611250 
	C307.767303,1.124821 307.904846,1.001000 307.952423,1.000500 
	C310.041656,1.000000 312.083344,1.000000 314.562500,1.000001 
	C314.928680,1.656758 315.095215,2.670998 314.742889,2.905442 
	C313.526611,3.714741 312.129395,4.252120 310.439636,4.964781 
	C309.334595,4.056901 308.590942,3.077290 307.807312,1.611250 
z"/>
<path fill="#FFFFFF" opacity="1.000000" stroke="none" 
	d="
M241.562500,1.000000 
	C242.204178,1.530676 242.408340,2.061352 242.612518,2.592029 
	C239.802017,2.300478 236.991531,2.008927 234.590515,1.358688 
	C237.041672,1.000000 239.083328,1.000000 241.562500,1.000000 
z"/>
<path fill="#FFFFFF" opacity="1.000000" stroke="none" 
	d="
M321.583344,0.999999 
	C322.205292,1.529636 322.410614,2.059273 322.615906,2.588912 
	C320.470001,2.293591 318.324127,1.998270 316.589111,1.351474 
	C318.388885,1.000000 319.777802,1.000000 321.583344,0.999999 
z"/>
<path fill="#FFFFFF" opacity="1.000000" stroke="none" 
	d="
M283.260071,1.104947 
	C282.594360,3.479246 281.222717,3.669662 278.594666,1.404443 
	C279.444458,1.000000 279.888885,1.000000 280.904114,1.294945 
	C282.069916,1.428242 282.665009,1.266594 283.260071,1.104947 
z"/>
<path fill="#FFFFFF" opacity="1.000000" stroke="none" 
	d="
M445.625000,0.999999 
	C446.090179,1.608599 446.180328,2.217199 446.270477,2.825799 
	C444.904144,2.449781 443.537781,2.073763 442.585724,1.348873 
	C443.750000,1.000000 444.500000,1.000000 445.625000,0.999999 
z"/>
<path fill="#FFFFFF" opacity="1.000000" stroke="none" 
	d="
M297.666656,1.000001 
	C298.089447,1.609985 298.178925,2.219967 298.268433,2.829950 
	C297.241089,2.454480 296.213776,2.079009 295.593201,1.351769 
	C296.444458,1.000000 296.888885,1.000000 297.666656,1.000001 
z"/>
<path fill="#FFFFFF" opacity="1.000000" stroke="none" 
	d="
M283.207916,1.052973 
	C282.665009,1.266594 282.069916,1.428242 281.237427,1.294945 
	C281.444458,1.000000 281.888885,1.000000 282.666687,1.000000 
	C283.000000,1.000000 283.155762,1.001000 283.207916,1.052973 
z"/>
<path fill="#FFFFFF" opacity="1.000000" stroke="none" 
	d="
M92.364807,838.776733 
	C91.512802,844.785461 97.290382,846.543030 99.902611,850.304993 
	C102.078354,853.438416 104.988403,856.061951 107.519417,858.852051 
	C112.217018,853.022827 115.100388,845.839172 116.085533,837.638245 
	C116.601036,833.346985 119.312935,829.311707 119.780067,825.024353 
	C120.361420,819.688843 120.042091,814.163757 119.379654,808.811157 
	C118.775139,803.926575 117.193565,799.162903 116.775673,793.837891 
	C117.897247,795.460449 119.307854,796.955139 120.091858,798.727051 
	C124.139977,807.876099 123.996994,817.657837 122.966774,827.206238 
	C122.324265,833.161133 118.946030,838.773071 117.794197,844.731873 
	C115.966446,854.187439 113.039291,862.929260 106.389305,870.146729 
	C105.303032,871.325745 104.616302,872.872925 104.226707,875.583313 
	C106.153259,875.222473 108.438171,875.392090 109.928360,874.385315 
	C112.648666,872.547424 115.281158,870.302307 117.249519,867.697510 
	C119.828461,864.284668 122.962547,863.538635 126.846313,863.955200 
	C130.306732,864.326416 133.860550,865.097229 137.240738,864.662415 
	C143.002792,863.921265 146.349106,867.190857 149.593842,871.419373 
	C145.078934,870.232300 140.518997,869.191711 136.060684,867.820618 
	C130.626801,866.149536 126.199814,866.485657 121.420975,870.580505 
	C115.839943,875.362793 109.066750,878.753845 102.062981,883.226013 
	C106.389191,885.474426 110.807358,888.042542 115.448799,890.109131 
	C120.439453,892.331238 124.601578,895.015564 127.273216,900.168213 
	C130.646408,906.673767 134.848068,912.746826 138.593552,919.065063 
	C139.212723,920.109558 139.326721,921.453552 139.487228,922.904541 
	C129.602066,908.304382 120.955170,892.323303 100.248116,887.710693 
	C103.252769,892.819824 106.244324,897.136841 108.460396,901.820801 
	C114.847008,915.319763 119.491837,929.235901 116.591141,944.571533 
	C116.116745,927.467773 110.750847,911.988770 101.869820,897.774231 
	C99.543045,899.968872 97.482979,901.911926 95.704033,903.589844 
	C95.510582,900.765930 95.568687,896.779297 95.182426,896.735718 
	C91.901054,896.365906 88.538788,896.713745 85.200775,896.846313 
	C85.346733,898.903870 85.492691,900.961426 85.690758,903.753540 
	C83.653534,902.043518 81.410057,900.160461 79.040359,898.171387 
	C70.260399,911.933105 65.168297,927.117065 64.413712,943.730896 
	C62.084976,923.372192 68.864815,905.528687 81.233810,888.170410 
	C78.726952,888.496948 77.803185,888.453613 77.002396,888.746521 
	C66.825363,892.468445 57.926952,897.746521 52.417599,907.680908 
	C50.259254,911.572876 47.203323,914.967102 44.025116,918.685181 
	C43.270203,918.429932 43.046352,918.077454 42.822506,917.724976 
	C47.595798,910.207947 51.998363,902.411987 57.334839,895.318665 
	C59.317204,892.683594 63.485878,891.691040 66.661461,889.956726 
	C70.663597,887.770935 74.669754,885.592590 78.559059,883.473816 
	C70.989685,878.132507 64.430527,872.812012 57.179207,868.717041 
	C54.143848,867.002930 49.574284,867.314148 45.820972,867.743286 
	C41.434002,868.244690 37.176659,869.880127 32.660965,870.498962 
	C34.764553,867.173035 36.887230,864.498474 41.382141,864.676697 
	C45.828583,864.853027 50.306698,864.156555 54.774193,863.899780 
	C58.208305,863.702393 61.037300,864.412292 63.564522,867.339966 
	C67.084358,871.417297 70.288506,876.635498 77.903648,875.364563 
	C76.900101,873.643005 76.298729,871.955505 75.167343,870.776550 
	C67.562035,862.851807 64.697670,853.003418 62.960186,842.513123 
	C62.240196,838.165955 59.926102,834.083923 59.197140,829.737000 
	C58.278709,824.260315 57.775997,818.621704 57.945202,813.078918 
	C58.138966,806.731750 59.210899,800.395020 63.990829,795.309570 
	C62.890827,802.178040 61.746086,809.039734 60.707523,815.917480 
	C60.080906,820.067200 60.112789,823.894653 62.830799,827.754272 
	C64.505249,830.132019 64.716698,833.732361 65.029449,836.839661 
	C65.869865,845.189880 68.565903,852.750183 73.978905,859.299744 
	C73.974258,859.301758 74.494720,859.195679 74.507355,859.046631 
	C75.163986,851.302551 81.164291,847.897156 86.558990,843.914185 
	C87.836563,842.970947 88.570274,841.291016 89.980484,839.530945 
	C91.059464,839.000122 91.712135,838.888428 92.364807,838.776733 
M98.179085,891.114746 
	C94.892532,895.000732 98.922989,895.286865 100.409645,896.824524 
	C100.826843,896.611450 101.244034,896.398438 101.661224,896.185425 
	C100.785973,894.664917 99.910721,893.144470 98.179085,891.114746 
M80.356567,893.749023 
	C80.928284,894.295715 81.500000,894.842407 82.071686,895.389160 
	C82.603233,894.228760 83.134781,893.068420 83.666336,891.908020 
	C82.733643,892.151855 81.800941,892.395691 80.356567,893.749023 
z"/>
<path fill="#FFFFFF" opacity="1.000000" stroke="none" 
	d="
M89.866592,236.741318 
	C83.361328,255.277817 76.856064,273.814301 69.869270,292.534485 
	C68.333267,292.143494 67.278801,291.568848 66.222794,290.641418 
	C68.024696,284.973022 69.606560,279.567657 71.710945,274.374023 
	C73.071220,271.016846 73.040955,268.151062 70.988220,264.642914 
	C71.187210,263.551849 71.268097,263.115631 71.700058,262.877045 
	C72.570084,264.071564 73.089035,265.068481 73.904541,266.635071 
	C76.423706,261.687744 78.163559,258.270874 79.728737,255.197037 
	C77.094757,253.005981 74.958084,251.228622 72.900269,248.999268 
	C73.025200,248.244888 73.071281,247.942520 73.493568,247.740860 
	C76.332695,248.782516 78.795609,249.723450 80.949745,250.546417 
	C84.472923,239.881851 87.799248,229.813110 91.279480,219.278519 
	C87.594986,219.016037 84.350014,218.784866 81.131401,218.299927 
	C81.109741,217.711426 81.061722,217.376663 81.400452,216.881668 
	C90.391060,217.722366 94.807930,213.757156 97.276558,205.520752 
	C98.403572,201.760605 98.220642,198.526337 98.184616,194.619873 
	C100.991486,195.705872 101.574478,193.839767 102.544266,191.903870 
	C103.029091,190.928802 103.147591,190.057816 103.272621,188.908203 
	C103.598969,187.964615 103.918770,187.299652 104.694214,186.730316 
	C106.078300,186.884857 107.006760,186.943756 107.905609,187.411316 
	C108.817780,187.667435 109.759560,187.514862 110.855995,187.699585 
	C111.370377,188.368881 111.730103,188.700882 112.089836,189.032883 
	C100.646683,200.028931 97.114914,214.485458 93.933823,229.678970 
	C92.610695,230.710724 91.818443,231.391098 90.968689,232.414398 
	C90.562988,234.085327 90.214783,235.413330 89.866592,236.741318 
z"/>
<path fill="#FFFFFF" opacity="1.000000" stroke="none" 
	d="
M92.942505,703.982666 
	C93.010788,707.684814 93.079063,711.387024 92.796471,715.829712 
	C92.593292,720.704773 92.740990,724.839417 92.888687,728.973999 
	C92.896103,740.109009 92.903519,751.244019 92.433990,762.765259 
	C91.338089,763.111145 90.719139,763.070801 90.100189,763.030457 
	C89.986328,762.586487 89.872475,762.142456 90.154022,761.070435 
	C90.397392,755.303711 90.245354,750.164917 90.093323,745.026184 
	C90.078392,731.617065 90.063461,718.208008 90.500488,704.360229 
	C91.615791,703.941895 92.279144,703.962280 92.942505,703.982666 
z"/>
<path fill="#FFFFFF" opacity="1.000000" stroke="none" 
	d="
M91.049667,475.995117 
	C90.964546,469.977234 90.879417,463.959381 91.149796,457.176056 
	C91.361656,449.945099 91.218018,443.479614 91.074379,437.014099 
	C91.022064,431.651306 90.969749,426.288483 91.329063,420.507050 
	C92.448959,421.717285 93.157234,423.346191 93.865501,424.975067 
	C93.902840,432.688202 93.940178,440.401367 93.688858,448.711365 
	C93.539230,449.858490 93.678268,450.408691 93.817307,450.958923 
	C93.869804,458.992188 93.922310,467.025421 93.556259,475.526245 
	C92.441696,475.994232 91.745682,475.994659 91.049667,475.995117 
z"/>
<path fill="#FFFFFF" opacity="1.000000" stroke="none" 
	d="
M93.987625,424.593506 
	C93.157234,423.346191 92.448959,421.717285 91.386978,420.042236 
	C91.004051,413.592499 90.974838,407.188904 91.232674,400.387512 
	C91.519722,399.989716 91.900383,399.984863 92.021736,400.213379 
	C92.610497,400.630371 93.077896,400.818848 93.545303,401.007355 
	C93.733452,408.742218 93.921608,416.477081 93.987625,424.593506 
z"/>
<path fill="#FFFFFF" opacity="1.000000" stroke="none" 
	d="
M92.543129,838.411865 
	C91.712135,838.888428 91.059464,839.000122 90.077621,839.150757 
	C89.723053,832.041748 89.697655,824.893860 90.058662,817.629761 
	C90.727226,818.690369 91.009384,819.867310 91.609360,822.369812 
	C91.960373,816.344910 92.229248,811.729797 92.498131,807.114746 
	C92.572571,817.425537 92.647011,827.736267 92.543129,838.411865 
z"/>
<path fill="#FFFFFF" opacity="1.000000" stroke="none" 
	d="
M94.321259,285.228088 
	C94.347290,292.906281 94.373322,300.584503 93.993744,308.655151 
	C92.839813,309.082642 92.091515,309.117676 91.343208,309.152740 
	C91.356712,301.330902 91.370224,293.509033 91.991631,285.425293 
	C93.173439,285.184967 93.747345,285.206512 94.321259,285.228088 
z"/>
<path fill="#FFFFFF" opacity="1.000000" stroke="none" 
	d="
M91.179398,384.067383 
	C91.154587,377.631653 91.129776,371.195892 91.600479,364.303436 
	C92.746216,363.895325 93.396454,363.943909 94.046692,363.992523 
	C94.080200,371.733185 94.113708,379.473816 93.804405,387.343323 
	C92.700859,386.337219 91.940132,385.202301 91.179398,384.067383 
z"/>
<path fill="#FFFFFF" opacity="1.000000" stroke="none" 
	d="
M90.208725,655.089233 
	C90.132637,654.597046 90.056549,654.104919 90.383163,653.247742 
	C91.056122,652.601562 91.326370,652.320374 91.596603,652.039185 
	C91.149246,651.728210 90.701912,651.417175 90.254593,651.106201 
	C90.168716,649.361877 90.082832,647.617676 90.429077,645.356934 
	C92.488419,642.671997 93.286743,640.593811 90.217598,638.937317 
	C90.213760,636.451538 90.209923,633.965759 90.694267,631.091431 
	C91.751762,630.804443 92.321060,630.906006 92.890358,631.007568 
	C93.045311,636.952942 93.221169,642.897827 93.342491,648.843872 
	C93.379013,650.633484 93.263870,652.426147 92.779724,654.472656 
	C91.630409,654.848267 90.919563,654.968750 90.208725,655.089233 
z"/>
<path fill="#FFFFFF" opacity="1.000000" stroke="none" 
	d="
M93.688843,516.876404 
	C93.718140,522.361816 93.747437,527.847168 93.246033,533.763306 
	C92.038544,535.186890 91.361755,536.179749 90.684967,537.172668 
	C90.666634,529.359863 90.648308,521.547058 91.022026,513.600708 
	C92.172325,514.603516 92.930580,515.739990 93.688843,516.876404 
z"/>
<path fill="#FFFFFF" opacity="1.000000" stroke="none" 
	d="
M90.875351,612.374329 
	C90.703651,606.114624 90.531960,599.854858 90.932838,593.216919 
	C92.098282,592.825378 92.691154,592.812134 93.284019,592.798828 
	C93.251434,599.659912 93.218849,606.520996 92.586166,613.592163 
	C91.615822,613.326233 91.245583,612.850281 90.875351,612.374329 
z"/>
<path fill="#FFFFFF" opacity="1.000000" stroke="none" 
	d="
M90.480087,575.161865 
	C90.498413,568.621521 90.516747,562.081177 91.043907,555.178711 
	C91.552734,554.816528 91.976547,554.874390 91.964111,555.226318 
	C92.553436,556.390442 93.155197,557.202637 93.756958,558.014832 
	C93.688377,563.486572 93.619804,568.958313 92.946259,574.790405 
	C91.720894,575.154541 91.100487,575.158203 90.480087,575.161865 
z"/>
<path fill="#FFFFFF" opacity="1.000000" stroke="none" 
	d="
M94.676910,253.022507 
	C94.642166,258.119293 94.607430,263.216095 94.011566,268.607544 
	C92.970863,269.006500 92.491295,269.110809 92.107437,268.877258 
	C91.917747,267.351501 91.632355,266.163574 91.346962,264.975677 
	C91.456253,258.872559 91.565536,252.769440 92.116776,246.275940 
	C92.558723,245.885559 92.982338,245.936661 92.950745,246.357574 
	C93.505066,248.859818 94.090988,250.941162 94.676910,253.022507 
z"/>
<path fill="#FFFFFF" opacity="1.000000" stroke="none" 
	d="
M36.910454,393.010437 
	C37.313313,392.997375 37.716179,392.984283 38.421387,392.975006 
	C41.101261,401.441040 41.385262,409.722687 35.852791,417.724396 
	C34.778847,417.812531 34.454662,417.743500 34.259647,417.311157 
	C35.541763,413.713165 37.415504,410.535065 37.674873,407.230255 
	C38.043045,402.539215 37.222851,397.754883 36.910454,393.010437 
z"/>
<path fill="#FFFFFF" opacity="1.000000" stroke="none" 
	d="
M89.873459,802.025696 
	C89.829575,796.604614 89.785690,791.183533 90.232666,785.383789 
	C91.437370,784.998291 92.151199,784.991394 92.865036,784.984558 
	C92.868828,790.076660 92.872620,795.168762 92.416290,800.771973 
	C91.261932,801.530579 90.567688,801.778137 89.873459,802.025696 
z"/>
<path fill="#FFFFFF" opacity="1.000000" stroke="none" 
	d="
M90.013977,763.489990 
	C90.719139,763.070801 91.338089,763.111145 92.266754,763.121704 
	C92.679932,769.399963 92.783394,775.708008 92.498451,782.450928 
	C91.461830,782.908813 90.813614,782.931824 90.165405,782.954895 
	C90.086189,776.619751 90.006973,770.284607 90.013977,763.489990 
z"/>
<path fill="#FFFFFF" opacity="1.000000" stroke="none" 
	d="
M34.130470,417.674469 
	C34.454662,417.743500 34.778847,417.812531 35.595245,417.951599 
	C30.974098,423.346313 25.860731,428.670898 20.410063,434.071411 
	C19.914501,433.478790 19.756241,432.810242 20.116215,431.758362 
	C25.133118,426.808197 29.631790,422.241333 34.130470,417.674469 
z"/>
<path fill="#FFFFFF" opacity="1.000000" stroke="none" 
	d="
M93.731003,516.516235 
	C92.930580,515.739990 92.172325,514.603516 91.184036,513.228638 
	C90.915001,506.835266 90.875992,500.680328 91.375244,494.230286 
	C92.218605,494.003174 92.523705,494.071167 93.007782,494.241882 
	C93.186760,494.344604 93.560631,494.169800 93.560631,494.169800 
	C93.631477,501.498566 93.702324,508.827301 93.731003,516.516235 
z"/>
<path fill="#FFFFFF" opacity="1.000000" stroke="none" 
	d="
M91.976547,554.874390 
	C91.976547,554.874390 91.552734,554.816528 91.360207,554.909668 
	C90.969093,549.326294 90.770508,543.649780 90.628448,537.572998 
	C91.361755,536.179749 92.038544,535.186890 93.024567,534.112549 
	C93.440247,540.659302 93.546684,547.287354 93.351501,554.307129 
	C92.692108,554.757324 92.334328,554.815857 91.976547,554.874390 
z"/>
<path fill="#FFFFFF" opacity="1.000000" stroke="none" 
	d="
M90.611481,612.763794 
	C91.245583,612.850281 91.615822,613.326233 92.287460,613.866821 
	C92.809013,619.331421 93.029152,624.731323 93.069824,630.569458 
	C92.321060,630.906006 91.751762,630.804443 90.895126,630.749756 
	C90.521072,624.915466 90.434341,619.034302 90.611481,612.763794 
z"/>
<path fill="#FFFFFF" opacity="1.000000" stroke="none" 
	d="
M91.292130,309.607727 
	C92.091515,309.117676 92.839813,309.082642 93.832535,309.028259 
	C94.140938,314.374023 94.204918,319.739166 93.967804,325.467407 
	C93.027557,325.781921 92.388420,325.733337 91.749283,325.684753 
	C91.579872,320.477417 91.410461,315.270050 91.292130,309.607727 
z"/>
<path fill="#FFFFFF" opacity="1.000000" stroke="none" 
	d="
M91.270935,348.072968 
	C91.192909,346.285187 91.114891,344.497375 91.510986,342.246704 
	C91.793144,338.878113 91.601173,335.972351 91.409203,333.066620 
	C91.327034,332.586151 91.244865,332.105652 91.644913,331.288239 
	C92.813683,330.952026 93.500221,330.952759 94.186768,330.953491 
	C94.209381,336.697540 94.231987,342.441620 93.825218,348.381042 
	C92.687531,348.408600 91.979233,348.240784 91.270935,348.072968 
z"/>
<path fill="#FFFFFF" opacity="1.000000" stroke="none" 
	d="
M90.432129,575.594666 
	C91.100487,575.158203 91.720894,575.154541 92.643768,575.073486 
	C93.114342,580.667480 93.282448,586.338867 93.367287,592.404541 
	C92.691154,592.812134 92.098282,592.825378 91.218185,592.916565 
	C90.748695,587.338806 90.566429,581.683105 90.432129,575.594666 
z"/>
<path fill="#FFFFFF" opacity="1.000000" stroke="none" 
	d="
M91.213982,348.475708 
	C91.979233,348.240784 92.687531,348.408600 93.699142,348.787811 
	C94.051247,353.688141 94.100044,358.377075 94.097763,363.529236 
	C93.396454,363.943909 92.746216,363.895325 91.764740,363.857330 
	C91.341331,358.871460 91.249176,353.874969 91.213982,348.475708 
z"/>
<path fill="#FFFFFF" opacity="1.000000" stroke="none" 
	d="
M92.997154,703.523193 
	C92.279144,703.962280 91.615791,703.941895 90.618454,703.926392 
	C90.222931,699.273987 90.161385,694.616577 90.478241,689.513062 
	C91.253380,689.031006 91.650108,688.995117 92.068985,689.249939 
	C92.351341,690.024414 92.611549,690.508301 92.871765,690.992126 
	C92.931778,695.015991 92.991791,699.039856 92.997154,703.523193 
z"/>
<path fill="#FFFFFF" opacity="1.000000" stroke="none" 
	d="
M89.801285,802.485413 
	C90.567688,801.778137 91.261932,801.530579 92.231339,801.215149 
	C92.536674,802.852844 92.566856,804.558411 92.547577,806.689392 
	C92.229248,811.729797 91.960373,816.344910 91.609360,822.369812 
	C91.009384,819.867310 90.727226,818.690369 90.210052,817.253662 
	C89.893066,812.310974 89.811089,807.628052 89.801285,802.485413 
z"/>
<path fill="#FFFFFF" opacity="1.000000" stroke="none" 
	d="
M92.982338,245.936661 
	C92.982338,245.936661 92.558723,245.885559 92.355225,245.949615 
	C91.973022,243.406387 91.794319,240.799103 91.826965,237.369492 
	C91.700935,235.055267 91.363564,233.563370 91.026192,232.071457 
	C91.818443,231.391098 92.610695,230.710724 93.771988,230.041626 
	C94.326233,235.031296 94.511429,240.009674 94.378052,245.396454 
	C93.700432,245.848770 93.341385,245.892715 92.982338,245.936661 
z"/>
<path fill="#FFFFFF" opacity="1.000000" stroke="none" 
	d="
M92.011734,269.215088 
	C92.491295,269.110809 92.970863,269.006500 93.815720,268.967529 
	C94.270233,274.111511 94.359467,279.190186 94.384979,284.748474 
	C93.747345,285.206512 93.173439,285.184967 92.180298,285.059784 
	C91.634506,279.986450 91.507927,275.016724 91.557220,269.697083 
	C91.733093,269.347168 92.011734,269.215118 92.011734,269.215088 
z"/>
<path fill="#FFFFFF" opacity="1.000000" stroke="none" 
	d="
M90.956894,437.398621 
	C91.218018,443.479614 91.361656,449.945099 91.219711,456.713165 
	C90.902542,450.604858 90.870972,444.194031 90.956894,437.398621 
z"/>
<path fill="#FFFFFF" opacity="1.000000" stroke="none" 
	d="
M42.543499,917.951416 
	C43.046352,918.077454 43.270203,918.429932 43.780746,918.910889 
	C42.430103,923.787781 40.792770,928.536255 39.155437,933.284729 
	C38.626389,933.132812 38.097340,932.980957 37.568291,932.829102 
	C39.133694,927.945374 40.699093,923.061646 42.543499,917.951416 
z"/>
<path fill="#FFFFFF" opacity="1.000000" stroke="none" 
	d="
M65.109947,323.001312 
	C65.432167,322.246063 65.754387,321.490784 66.305908,320.285828 
	C67.235123,319.626373 67.935020,319.416656 68.634918,319.206940 
	C66.669640,323.457336 64.704353,327.707764 62.304436,331.842957 
	C61.562813,331.477936 61.255833,331.228149 60.948845,330.978363 
	C62.028736,329.084503 63.108639,327.190674 64.509987,324.763214 
	C64.924271,323.820160 65.017113,323.410736 65.109947,323.001312 
z"/>
<path fill="#FFFFFF" opacity="1.000000" stroke="none" 
	d="
M91.133087,384.525085 
	C91.940132,385.202301 92.700859,386.337219 93.678848,387.724670 
	C93.947937,391.013000 93.999756,394.048859 93.683823,397.636780 
	C92.636658,398.094299 91.957260,397.999664 91.277863,397.905060 
	C91.214157,393.597656 91.150459,389.290222 91.133087,384.525085 
z"/>
<path fill="#FFFFFF" opacity="1.000000" stroke="none" 
	d="
M92.828796,494.139160 
	C92.523705,494.071167 92.218605,494.003174 91.466431,493.793640 
	C91.019348,493.652100 90.943405,493.685272 91.211662,493.252930 
	C91.308678,488.877563 91.137444,484.934540 90.966202,480.991547 
	C90.926552,479.597412 90.886894,478.203308 90.948456,476.402161 
	C91.745682,475.994659 92.441696,475.994232 93.485687,475.989166 
	C93.868645,480.031738 93.903625,484.078888 93.617081,488.860840 
	C93.139977,491.110138 92.984383,492.624664 92.828796,494.139160 
z"/>
<path fill="#FFFFFF" opacity="1.000000" stroke="none" 
	d="
M67.811516,301.154999 
	C68.096245,301.111633 68.380974,301.068237 69.097290,301.005737 
	C69.676743,305.349365 69.824585,309.712158 69.648758,314.691101 
	C68.699463,314.979279 68.073837,314.651245 67.448212,314.323212 
	C67.549538,313.616699 67.650864,312.910187 67.729454,311.783081 
	C67.741653,307.959961 67.776588,304.557495 67.811516,301.154999 
z"/>
<path fill="#FFFFFF" opacity="1.000000" stroke="none" 
	d="
M92.046837,688.959229 
	C91.650108,688.995117 91.253380,689.031006 90.557953,689.056335 
	C90.178604,687.960999 90.097961,686.876282 90.329758,685.077271 
	C90.530937,680.592712 90.419685,676.822449 90.308426,673.052124 
	C90.272980,671.987976 90.237541,670.923767 90.551796,669.307617 
	C91.053078,668.601746 91.204674,668.447876 91.356262,668.293945 
	C91.975784,670.900391 92.595306,673.506836 92.841660,676.835754 
	C92.327934,681.358582 92.187386,685.158875 92.046837,688.959229 
z"/>
<path fill="#FFFFFF" opacity="1.000000" stroke="none" 
	d="
M89.978745,745.408569 
	C90.245354,750.164917 90.397392,755.303711 90.246170,760.730835 
	C89.916664,755.943115 89.890427,750.867004 89.978745,745.408569 
z"/>
<path fill="#FFFFFF" opacity="1.000000" stroke="none" 
	d="
M90.173920,655.541382 
	C90.919563,654.968750 91.630409,654.848267 92.681824,654.865417 
	C93.047394,658.554565 93.072380,662.106079 92.577621,665.828857 
	C91.891144,666.111755 91.724403,666.223450 91.557655,666.335205 
	C91.787491,666.503906 92.017334,666.672607 92.247185,666.841309 
	C92.234528,667.198303 92.221863,667.555359 91.598083,667.713745 
	C90.798431,667.298645 90.609909,667.082092 90.421387,666.865601 
	C90.327293,663.241577 90.233208,659.617554 90.173920,655.541382 
z"/>

<path fill="#FFFFFF" opacity="1.000000" stroke="none" 
	d="
M92.068985,689.249878 
	C92.187386,685.158875 92.327934,681.358582 92.766510,677.271423 
	C93.103348,681.407776 93.142151,685.830933 93.026352,690.623108 
	C92.611549,690.508301 92.351341,690.024414 92.068985,689.249878 
z"/>
<path fill="#FFFFFF" opacity="1.000000" stroke="none" 
	d="
M93.013245,728.599854 
	C92.740990,724.839417 92.593292,720.704773 92.720741,716.285645 
	C93.043182,720.075989 93.090492,724.150879 93.013245,728.599854 
z"/>
<path fill="#FFFFFF" opacity="1.000000" stroke="none" 
	d="
M90.121201,673.394043 
	C90.419685,676.822449 90.530937,680.592712 90.381035,684.669800 
	C90.057907,681.229736 89.995941,677.482849 90.121201,673.394043 
z"/>
<path fill="#FFFFFF" opacity="1.000000" stroke="none" 
	d="
M90.814880,481.359222 
	C91.137444,484.934540 91.308678,488.877563 91.170219,493.252747 
	C90.794868,489.698944 90.729218,485.712921 90.814880,481.359222 
z"/>
<path fill="#FFFFFF" opacity="1.000000" stroke="none" 
	d="
M91.318657,333.502747 
	C91.601173,335.972351 91.793144,338.878113 91.614059,341.868713 
	C91.238037,339.282013 91.233078,336.610413 91.318657,333.502747 
z"/>
<path fill="#FFFFFF" opacity="1.000000" stroke="none" 
	d="
M94.281319,330.546753 
	C93.500221,330.952759 92.813683,330.952026 91.783028,330.942993 
	C91.416031,329.454376 91.393150,327.974060 91.559769,326.089264 
	C92.388420,325.733337 93.027557,325.781921 93.864708,325.926819 
	C94.167107,327.395416 94.271484,328.767731 94.281319,330.546753 
z"/>

<path fill="#FFFFFF" opacity="1.000000" stroke="none" 
	d="
M92.950745,246.357574 
	C93.341385,245.892715 93.700432,245.848770 94.331528,245.829712 
	C94.695457,247.950485 94.787338,250.046387 94.778069,252.582397 
	C94.090988,250.941162 93.505066,248.859818 92.950745,246.357574 
z"/>
<path fill="#FFFFFF" opacity="1.000000" stroke="none" 
	d="
M90.118011,639.362366 
	C93.286743,640.593811 92.488419,642.671997 90.505035,644.924683 
	C90.105392,643.268433 90.061905,641.527893 90.118011,639.362366 
z"/>
<path fill="#FFFFFF" opacity="1.000000" stroke="none" 
	d="
M93.007774,494.241882 
	C92.984383,492.624664 93.139977,491.110138 93.547272,489.321869 
	C93.848412,490.567230 93.897835,492.086334 93.753944,493.887634 
	C93.560631,494.169800 93.186760,494.344604 93.007774,494.241882 
z"/>

<path fill="#FFFFFF" opacity="1.000000" stroke="none" 
	d="
M66.224319,290.994202 
	C67.278801,291.568848 68.333267,292.143494 69.664230,292.853455 
	C69.832764,293.551453 69.724808,294.114197 69.391899,294.865845 
	C68.210487,294.379425 67.254036,293.704132 65.940117,292.639862 
	C65.796539,291.832001 66.010422,291.413086 66.224319,290.994202 
z"/>
<path fill="#FFFFFF" opacity="1.000000" stroke="none" 
	d="
M90.968689,232.414398 
	C91.363564,233.563370 91.700935,235.055267 91.891769,236.941483 
	C91.342400,236.981705 90.939575,236.627609 90.201668,236.507416 
	C90.214783,235.413330 90.562988,234.085327 90.968689,232.414398 
z"/>
<path fill="#FFFFFF" opacity="1.000000" stroke="none" 
	d="
M92.107437,268.877258 
	C92.011734,269.215118 91.733093,269.347168 91.605209,269.261047 
	C91.362709,268.052368 91.248085,266.929779 91.240211,265.391449 
	C91.632355,266.163574 91.917747,267.351501 92.107437,268.877258 
z"/>
<path fill="#FFFFFF" opacity="1.000000" stroke="none" 
	d="
M90.022583,783.278931 
	C90.813614,782.931824 91.461830,782.908813 92.433807,782.911194 
	C92.842003,783.390320 92.926445,783.844116 92.937958,784.641235 
	C92.151199,784.991394 91.437370,784.998291 90.366592,785.003845 
	C89.966362,784.535950 89.923065,784.069458 90.022583,783.278931 
z"/>
<path fill="#FFFFFF" opacity="1.000000" stroke="none" 
	d="
M91.964111,555.226318 
	C92.334328,554.815857 92.692108,554.757324 93.317795,554.754761 
	C93.700905,555.610718 93.816109,556.410889 93.844139,557.612915 
	C93.155197,557.202637 92.553436,556.390442 91.964111,555.226318 
z"/>
<path fill="#FFFFFF" opacity="1.000000" stroke="none" 
	d="
M113.841827,183.941330 
	C114.178490,184.201096 114.515144,184.460861 115.001083,185.006805 
	C114.727676,185.889374 114.305000,186.485748 113.527710,187.118958 
	C113.173111,187.155792 112.939812,186.922058 112.871063,186.452789 
	C112.690208,185.687271 112.578102,185.391037 112.556030,184.872223 
	C113.044655,184.413544 113.443237,184.177429 113.841827,183.941330 
z"/>
<path fill="#FFFFFF" opacity="1.000000" stroke="none" 
	d="
M91.149704,398.238647 
	C91.957260,397.999664 92.636658,398.094299 93.646873,398.089783 
	C94.050133,398.443420 94.122581,398.896210 93.745667,399.584869 
	C92.831009,399.875458 92.365692,399.930145 91.900383,399.984863 
	C91.900383,399.984863 91.519722,399.989716 91.329376,399.989258 
	C91.099869,399.516571 91.060707,399.044403 91.149704,398.238647 
z"/>
<path fill="#FFFFFF" opacity="1.000000" stroke="none" 
	d="
M57.062225,336.129700 
	C57.464375,335.184387 57.960358,334.469574 58.751839,333.603088 
	C58.883888,334.499054 58.720444,335.546753 58.229210,336.795898 
	C57.580307,336.869995 57.331848,336.657623 57.062225,336.129700 
z"/>
<path fill="#FFFFFF" opacity="1.000000" stroke="none" 
	d="
M112.365669,188.956482 
	C111.730103,188.700882 111.370377,188.368881 110.898880,187.399628 
	C111.174553,186.329697 111.561996,185.897003 112.029564,185.762329 
	C112.386398,186.347580 112.663109,186.634811 112.939812,186.922058 
	C112.939812,186.922058 113.173111,187.155792 113.292160,187.270203 
	C113.154640,187.883118 112.898071,188.381592 112.365669,188.956482 
z"/>
<path fill="#FFFFFF" opacity="1.000000" stroke="none" 
	d="
M93.957367,450.798401 
	C93.678268,450.408691 93.539230,449.858490 93.615303,449.175842 
	C93.919418,449.574921 94.008423,450.106415 93.957367,450.798401 
z"/>
<path fill="#FFFFFF" opacity="1.000000" stroke="none" 
	d="
M90.217453,651.404053 
	C90.701912,651.417175 91.149246,651.728210 91.596603,652.039185 
	C91.326370,652.320374 91.056122,652.601562 90.509811,652.891052 
	C90.215942,652.500183 90.198143,652.101013 90.217453,651.404053 
z"/>
<path fill="#FFFFFF" opacity="1.000000" stroke="none" 
	d="
M60.587883,331.211487 
	C61.255833,331.228149 61.562813,331.477936 62.003471,331.997559 
	C61.435612,332.687134 60.734077,333.106903 60.032547,333.526672 
	C60.097336,332.832642 60.162128,332.138641 60.587883,331.211487 
z"/>

<path fill="#FFFFFF" opacity="1.000000" stroke="none" 
	d="
M92.257965,666.788452 
	C92.017334,666.672607 91.787491,666.503906 91.557655,666.335205 
	C91.724403,666.223450 91.891144,666.111755 92.272217,666.228271 
	C92.486549,666.456543 92.268753,666.735657 92.257965,666.788452 
z"/>
<path fill="#FFFFFF" opacity="1.000000" stroke="none" 
	d="
M90.262543,667.217163 
	C90.609909,667.082092 90.798431,667.298645 91.106979,667.928101 
	C91.226990,668.341064 91.281517,668.250671 91.318893,668.272339 
	C91.204674,668.447876 91.053078,668.601746 90.618294,668.912964 
	C90.257973,668.569824 90.180840,668.069275 90.262543,667.217163 
z"/>
<path fill="#FFFFFF" opacity="1.000000" stroke="none" 
	d="
M92.021736,400.213379 
	C92.365692,399.930145 92.831009,399.875458 93.636581,399.915466 
	C93.974152,400.206268 93.971451,400.402435 93.757034,400.802979 
	C93.077896,400.818848 92.610497,400.630371 92.021736,400.213379 
z"/>























<path fill="#FFFFFF" opacity="1.000000" stroke="none" 
	d="
M136.873413,103.569885 
	C144.701721,90.086197 152.703156,76.981964 160.490402,64.228539 
	C147.858917,66.381279 134.977722,65.088745 123.154770,58.275284 
	C123.275352,57.714790 123.395935,57.154297 123.516510,56.593803 
	C128.077866,58.084587 132.548325,60.331131 137.221390,60.893246 
	C144.674850,61.789810 152.472748,62.712791 159.716324,61.388752 
	C164.115631,60.584606 167.746506,55.576511 172.274292,52.062992 
	C172.407684,51.179001 171.989395,50.688980 171.571106,50.198963 
	C171.016251,50.198963 170.461395,50.198963 169.151367,50.198963 
	C172.249542,48.628246 174.650314,47.411098 177.360916,46.041557 
	C178.445251,46.571007 179.219742,47.252853 180.056976,48.590576 
	C180.023895,49.838440 179.928085,50.430428 179.577469,50.978905 
	C178.886871,51.137253 178.451096,51.339119 177.812012,51.831841 
	C174.511673,56.202839 171.414673,60.282982 168.197540,64.799652 
	C168.037186,65.534790 167.996948,65.833389 167.623901,65.926178 
	C165.905533,67.406067 164.519958,69.091774 163.021194,71.121857 
	C162.919327,71.707611 162.930664,71.949005 162.615845,71.990807 
	C158.572205,76.609100 154.330505,81.137108 151.419708,86.401039 
	C150.391541,88.260384 152.617035,91.916458 153.334274,94.757973 
	C153.351791,94.827377 153.100983,94.964508 152.630402,94.990692 
	C151.307953,93.025452 150.330414,91.139580 149.196564,88.952126 
	C145.737518,94.524597 142.468796,99.790459 139.200073,105.056320 
	C138.482224,104.687332 137.764389,104.318336 136.873413,103.569885 
z"/>
<path fill="#FFFFFF" opacity="1.000000" stroke="none" 
	d="
M56.054531,215.084137 
	C53.049923,217.316101 53.662109,214.431854 53.374073,213.257675 
	C50.165943,200.179977 47.369495,186.993378 43.854084,174.000656 
	C37.405499,150.167084 29.432163,126.965576 12.883946,107.426987 
	C13.078217,107.042580 13.371899,106.988228 14.382696,106.986740 
	C16.189249,108.251068 17.278685,109.462524 18.368120,110.673981 
	C35.143867,132.585861 42.999203,158.251968 49.333515,184.530594 
	C51.742802,194.525787 53.819405,204.601151 56.054531,215.084137 
z"/>


<path fill="#FFFFFF" opacity="1.000000" stroke="none" 
	d="
M38.985100,31.317467 
	C54.811680,32.356297 69.893684,30.404791 84.286705,21.001945 
	C77.800949,20.395784 72.279594,19.879755 66.379112,19.195263 
	C66.219421,18.720171 66.438850,18.413546 67.368881,17.924740 
	C81.834419,20.469227 93.874245,18.267426 102.347588,5.817173 
	C102.994324,5.881013 103.641060,5.944854 104.588837,6.347666 
	C101.095856,10.977270 97.301826,15.267903 93.669884,19.375238 
	C97.181343,19.673311 101.599236,20.048326 106.017128,20.423342 
	C106.061043,20.752108 106.062752,21.081093 106.015419,21.657410 
	C94.420311,19.691154 84.434013,23.616234 74.115166,28.631924 
	C63.447090,33.817368 51.533550,34.749462 39.304970,32.343216 
	C38.973862,31.941257 38.974476,31.762980 38.985100,31.317467 
z"/>






<path fill="#FFFFFF" opacity="1.000000" stroke="none" 
	d="
M8.871275,99.864700 
	C18.255915,80.892334 19.748333,60.287483 20.661106,39.626999 
	C20.863478,35.046299 19.685085,30.404600 19.141205,25.389336 
	C19.520033,24.987246 19.900120,24.986807 20.565281,24.986990 
	C24.772470,38.620235 23.083284,52.319870 20.731798,65.866142 
	C19.102411,75.252609 16.346069,84.451874 13.882427,93.678490 
	C13.343930,95.695221 11.909258,97.472664 10.743579,99.694138 
	C10.137580,99.995247 9.675313,99.962540 8.871275,99.864700 
z"/>
<path fill="#FFFFFF" opacity="1.000000" stroke="none" 
	d="
M104.694214,186.730316 
	C104.585281,183.772156 107.622330,180.973709 104.763474,177.581238 
	C105.377457,177.094238 105.671600,177.053207 105.965736,177.012192 
	C106.695694,176.808182 107.910316,176.800980 108.084763,176.371399 
	C112.484711,165.536224 116.775375,154.656662 121.358032,143.375641 
	C122.399612,142.643890 123.168411,142.321396 123.937210,141.998901 
	C124.139763,142.001205 124.342308,142.003525 124.848694,142.008789 
	C124.622116,143.794464 124.091705,145.577194 123.807983,147.688171 
	C124.054672,148.016418 124.033363,147.932480 123.664062,147.881622 
	C123.546654,148.314972 123.798538,148.799164 124.213974,149.480881 
	C124.684967,149.821167 124.992416,149.963943 125.299866,150.106720 
	C117.022369,158.386658 115.437515,169.901169 110.884308,179.979630 
	C109.938232,182.073761 109.195877,184.259918 108.147430,186.703156 
	C107.006760,186.943756 106.078300,186.884857 104.694214,186.730316 
z"/>




<path fill="#FFFFFF" opacity="1.000000" stroke="none" 
	d="
M54.137039,102.978714 
	C60.505955,87.571617 58.730423,72.196648 53.874020,56.418655 
	C54.064888,56.012680 54.256424,56.009544 54.735237,56.000320 
	C61.581791,71.369743 63.295517,86.837814 55.687336,102.802689 
	C55.110149,103.087563 54.756145,103.049454 54.137039,102.978714 
z"/>
<path fill="#FFFFFF" opacity="1.000000" stroke="none" 
	d="
M37.976631,260.197693 
	C49.398094,255.117798 60.600658,253.575577 71.235046,262.414124 
	C71.268097,263.115631 71.187210,263.551849 70.988220,264.642914 
	C61.017998,256.714539 50.062206,257.474731 38.349861,261.558807 
	C37.978382,261.238831 37.977760,260.860260 37.976631,260.197693 
z"/>
<path fill="#FFFFFF" opacity="1.000000" stroke="none" 
	d="
M11.183758,141.929367 
	C16.035896,152.030212 20.451805,162.160278 24.503113,172.652039 
	C23.624302,173.048904 23.110094,173.084061 22.595886,173.119202 
	C18.334890,163.021194 14.073897,152.923203 9.844657,142.429764 
	C10.166782,142.009064 10.457155,141.983810 11.183758,141.929367 
z"/>

<path fill="#FFFFFF" opacity="1.000000" stroke="none" 
	d="
M108.097603,44.023834 
	C100.971001,53.590992 93.095322,62.310600 81.481079,67.217796 
	C81.091507,66.996330 81.073013,66.777107 81.016754,66.230057 
	C91.496544,60.602158 99.139847,52.124516 106.682144,43.159420 
	C107.446678,43.520638 107.772141,43.772236 108.097603,44.023834 
z"/>
<path fill="#FFFFFF" opacity="1.000000" stroke="none" 
	d="
M115.507767,61.956116 
	C113.841980,71.938332 109.315590,80.266457 99.985306,85.802109 
	C99.151627,85.612183 98.598335,85.211983 98.014236,84.534546 
	C107.183815,79.798882 110.959274,71.411545 114.035271,62.112930 
	C114.519310,61.876068 114.801811,61.897945 115.507767,61.956116 
z"/>
<path fill="#FFFFFF" opacity="1.000000" stroke="none" 
	d="
M35.262547,370.003387 
	C37.386417,363.668182 39.801392,357.339203 42.474354,350.882935 
	C43.290138,350.966736 43.847939,351.177765 44.352478,351.833069 
	C41.772114,358.190491 39.245010,364.103668 36.717911,370.016846 
	C36.329823,370.014435 35.941734,370.011993 35.262547,370.003387 
z"/>

<path fill="#FFFFFF" opacity="1.000000" stroke="none" 
	d="
M60.759998,221.874069 
	C65.277977,220.467957 69.796913,219.032318 74.369476,217.794861 
	C76.240456,217.288528 78.227425,217.210724 80.587669,216.989960 
	C81.061722,217.376663 81.109741,217.711426 81.131401,218.299927 
	C75.303970,220.304535 69.502892,222.055374 63.243401,223.639954 
	C62.539516,223.212967 62.249817,223.147369 61.915886,223.276917 
	C61.915886,223.276917 61.493774,223.244034 61.477234,222.823044 
	C61.271294,222.245117 61.081886,222.088165 60.892483,221.931229 
	C60.892483,221.931229 60.782543,221.924316 60.759998,221.874069 
z"/>
<path fill="#FFFFFF" opacity="1.000000" stroke="none" 
	d="
M56.072727,110.153984 
	C60.420673,114.577599 64.682068,119.437187 68.721161,124.800072 
	C68.288857,125.689262 68.078850,126.075172 67.868835,126.461082 
	C63.937031,121.662094 60.005219,116.863098 55.959038,111.765854 
	C55.891842,111.175056 55.939007,110.882515 56.072727,110.153984 
z"/>
<path fill="#FFFFFF" opacity="1.000000" stroke="none" 
	d="
M94.029984,145.903168 
	C94.961693,146.158890 96.698952,146.693710 96.859924,147.531418 
	C97.783180,152.336075 98.332329,157.212616 99.095642,162.493225 
	C98.725510,162.947678 98.268143,162.973648 97.467125,163.004944 
	C96.118149,157.447556 95.112823,151.884857 94.029984,145.903168 
z"/>
<path fill="#FFFFFF" opacity="1.000000" stroke="none" 
	d="
M79.630722,113.020020 
	C82.645584,117.097519 85.322777,121.189148 87.677078,125.627655 
	C86.865463,125.994339 86.376755,126.014153 85.888039,126.033966 
	C83.275963,121.929245 80.663887,117.824532 77.996559,113.373749 
	C78.391899,113.029831 78.842476,113.031990 79.630722,113.020020 
z"/>
<path fill="#FFFFFF" opacity="1.000000" stroke="none" 
	d="
M128.014053,16.968300 
	C124.760010,14.185262 121.505959,11.402225 118.156387,8.298128 
	C118.485107,7.964087 118.909370,7.951104 119.650291,7.971335 
	C122.925087,10.435807 125.883217,12.867064 128.769684,15.701850 
	C128.470047,16.393019 128.242050,16.680658 128.014053,16.968300 
z"/>
<path fill="#FFFFFF" opacity="1.000000" stroke="none" 
	d="
M96.739815,115.112091 
	C98.654610,118.743401 100.331909,122.493645 101.718094,126.621613 
	C101.020668,126.991516 100.614372,126.983696 100.208069,126.975876 
	C98.640968,123.839439 97.073868,120.703003 95.390625,117.251007 
	C95.683762,116.367310 96.093040,115.799179 96.739815,115.112091 
z"/>


<path fill="#FFFFFF" opacity="1.000000" stroke="none" 
	d="
M9.410636,32.004311 
	C9.093788,29.311163 9.093788,26.594040 9.093788,23.876917 
	C9.539094,23.852840 9.984399,23.828762 10.429705,23.804686 
	C10.656407,26.249367 10.883110,28.694048 11.052958,31.570017 
	C10.573230,31.994314 10.150357,31.987322 9.410636,32.004311 
z"/>
<path fill="#FFFFFF" opacity="1.000000" stroke="none" 
	d="
M79.390640,106.037186 
	C80.102203,103.117393 81.196671,100.233917 82.291138,97.350441 
	C82.688995,97.445190 83.086853,97.539948 83.484703,97.634705 
	C82.652397,100.293823 81.820084,102.952950 80.764008,105.874077 
	C80.284683,106.115219 80.029114,106.094360 79.390640,106.037186 
z"/>
<path fill="#FFFFFF" opacity="1.000000" stroke="none" 
	d="
M108.363495,43.852222 
	C107.772141,43.772236 107.446678,43.520638 106.977249,42.989727 
	C108.306465,40.801544 109.779655,38.892673 111.551361,36.829197 
	C111.921158,37.024227 111.992432,37.373871 112.170868,38.247940 
	C111.061821,40.408451 109.845604,42.044529 108.363495,43.852222 
z"/>
<path fill="#FFFFFF" opacity="1.000000" stroke="none" 
	d="
M94.874878,89.757889 
	C94.418701,92.842918 93.841339,95.697144 92.855011,98.285660 
	C92.658066,95.299858 92.870079,92.579773 93.206207,89.417000 
	C93.804771,89.158569 94.279221,89.342834 94.874878,89.757889 
z"/>
<path fill="#FFFFFF" opacity="1.000000" stroke="none" 
	d="
M90.067177,184.865707 
	C91.972549,186.430740 93.427437,188.083496 94.427094,189.638092 
	C92.327194,188.273682 90.682510,187.007462 88.876190,185.431976 
	C89.015274,185.066284 89.315987,185.009857 90.067177,184.865707 
z"/>

<path fill="#FFFFFF" opacity="1.000000" stroke="none" 
	d="
M36.217216,96.586426 
	C35.643055,98.422272 34.799049,99.877258 33.818497,101.678421 
	C33.333580,102.045502 32.985214,102.066399 32.375679,102.064163 
	C33.392128,100.095879 34.669746,98.150726 36.217216,96.586426 
z"/>
<path fill="#FFFFFF" opacity="1.000000" stroke="none" 
	d="
M123.950058,141.651260 
	C123.168411,142.321396 122.399612,142.643890 121.315292,142.983215 
	C120.831230,142.990204 120.662697,142.980347 120.240921,142.968613 
	C121.007950,141.772308 122.028221,140.577881 123.048485,139.383469 
	C123.353294,140.023514 123.658104,140.663574 123.950058,141.651260 
z"/>
<path fill="#FFFFFF" opacity="1.000000" stroke="none" 
	d="
M5.958922,15.814301 
	C5.482170,16.195238 5.043107,16.206923 4.300209,16.088106 
	C4.596380,14.694044 5.196387,13.430483 5.796393,12.166923 
	C5.863133,13.259632 5.929872,14.352342 5.958922,15.814301 
z"/>
<path fill="#FFFFFF" opacity="1.000000" stroke="none" 
	d="
M8.401028,12.783388 
	C9.365522,12.670083 10.455803,12.838195 11.546083,13.006306 
	C11.269959,13.575182 10.993836,14.144057 10.717713,14.712934 
	C9.987413,14.163557 9.257113,13.614181 8.401028,12.783388 
z"/>
<path fill="#FFFFFF" opacity="1.000000" stroke="none" 
	d="
M27.603573,25.040071 
	C28.017946,24.978821 28.015530,25.080250 28.042858,25.053778 
	C27.637150,25.878542 27.204113,26.729778 26.458412,27.767670 
	C25.528992,27.476912 24.912233,26.999500 24.154369,26.258368 
	C25.071911,25.696873 26.130556,25.399097 27.603573,25.040071 
z"/>
<path fill="#FFFFFF" opacity="1.000000" stroke="none" 
	d="
M118.444229,21.609112 
	C119.395920,21.499123 120.187271,21.831009 120.559013,22.911537 
	C120.112465,24.498957 120.085526,25.337732 120.058594,26.176510 
	C119.453415,25.621706 118.848236,25.066900 118.130844,24.210064 
	C118.107048,23.289017 118.195473,22.670002 118.444229,21.609112 
z"/>
<path fill="#FFFFFF" opacity="1.000000" stroke="none" 
	d="
M124.010284,87.430031 
	C123.884369,87.793594 123.701614,87.795425 122.828941,87.865448 
	C121.847206,87.928558 121.555382,87.923462 121.263550,87.918365 
	C121.559738,86.926636 121.855934,85.934914 122.434692,84.674454 
	C123.129318,85.293236 123.541382,86.180763 124.010284,87.430031 
z"/>
<path fill="#FFFFFF" opacity="1.000000" stroke="none" 
	d="
M154.650482,117.674423 
	C155.164200,117.032387 155.677933,116.390350 156.486160,115.631317 
	C157.084000,115.934013 157.387344,116.353706 158.025742,116.977440 
	C158.158035,117.449814 157.955246,117.718163 157.058716,117.989113 
	C155.793472,117.885956 155.221985,117.780190 154.650482,117.674423 
z"/>
<path fill="#FFFFFF" opacity="1.000000" stroke="none" 
	d="
M92.659912,106.256012 
	C92.515930,106.666649 92.371948,107.077278 92.038948,107.757339 
	C91.464851,108.039383 91.079781,108.051994 90.405846,108.056015 
	C90.268448,107.494133 90.419914,106.940842 91.203751,106.252396 
	C92.110710,106.163490 92.385307,106.209755 92.659912,106.256012 
z"/>

<path fill="#FFFFFF" opacity="1.000000" stroke="none" 
	d="
M56.990376,43.416214 
	C57.429829,43.084843 57.871330,43.028912 58.535164,43.286095 
	C58.504902,44.004284 58.252304,44.409363 57.999710,44.814438 
	C57.829281,44.855015 57.658855,44.895588 57.235622,44.863903 
	C56.986019,44.424976 56.989220,44.058315 56.990376,43.416214 
z"/>
<path fill="#FFFFFF" opacity="1.000000" stroke="none" 
	d="
M115.968262,100.905952 
	C115.968262,100.905952 115.675102,101.144958 115.486534,101.130577 
	C114.968964,101.114342 114.667892,101.021713 114.228149,100.667328 
	C114.160583,100.349991 114.259628,100.203644 114.841911,100.104073 
	C115.539513,100.402557 115.753883,100.654259 115.968262,100.905952 
z"/>
<path fill="#FFFFFF" opacity="1.000000" stroke="none" 
	d="
M81.229706,9.414893 
	C81.383324,8.971995 81.753479,8.720119 82.459129,8.422274 
	C82.345161,8.786175 81.895706,9.196045 81.229706,9.414893 
z"/>
<path fill="#FFFFFF" opacity="1.000000" stroke="none" 
	d="
M101.080399,172.748657 
	C100.563263,173.150574 100.095497,173.264023 99.319214,173.058380 
	C99.155403,172.442886 99.375481,172.221344 99.901039,172.015015 
	C100.464020,172.123672 100.796898,172.291931 101.080399,172.748657 
z"/>

<path fill="#FFFFFF" opacity="1.000000" stroke="none" 
	d="
M44.176430,232.025177 
	C44.262131,232.179321 44.347832,232.333466 44.321228,232.727142 
	C43.869404,232.986237 43.529881,233.005814 42.680977,233.053009 
	C42.100742,232.718658 42.029892,232.356689 42.554874,231.938263 
	C43.492615,231.929596 43.834522,231.977386 44.176430,232.025177 
z"/>




<path fill="#FFFFFF" opacity="1.000000" stroke="none" 
	d="
M87.858070,185.063751 
	C87.882385,185.252655 87.634132,185.423584 87.150787,185.650650 
	C87.077736,185.439255 87.301003,185.218918 87.858070,185.063751 
z"/>

<path fill="#FFFFFF" opacity="1.000000" stroke="none" 
	d="
M61.950539,223.487549 
	C62.249817,223.147369 62.539516,223.212967 62.877640,223.689880 
	C62.970291,223.906067 62.535622,224.122559 62.292831,224.121368 
	C62.050037,224.120163 61.985195,223.698196 61.950539,223.487549 
z"/>












<path fill="#FFFFFF" opacity="1.000000" stroke="none" 
	d="
M251.016754,31.596413 
	C240.614365,31.200577 230.213776,30.530205 219.387238,29.743187 
	C218.964203,29.289879 218.967072,28.953215 218.978729,28.363844 
	C229.404144,28.735893 239.820801,29.360651 250.630157,30.104759 
	C251.021439,30.590029 251.019989,30.955950 251.016754,31.596413 
z"/>
<path fill="#FFFFFF" opacity="1.000000" stroke="none" 
	d="
M205.980255,41.986027 
	C211.043854,47.547741 217.663422,50.280304 224.788895,52.110008 
	C225.796616,52.368774 226.716461,52.969734 227.867004,53.732346 
	C217.973801,54.156708 210.165649,49.263374 202.998627,42.381935 
	C203.346542,42.028122 203.813812,41.991875 204.907242,41.984962 
	C205.716995,42.012711 205.900604,42.011124 206.084229,42.009533 
	C206.084229,42.009533 205.996887,42.027386 205.980255,41.986027 
z"/>
<path fill="#FFFFFF" opacity="1.000000" stroke="none" 
	d="
M203.939499,70.737335 
	C196.320480,68.149147 188.705551,65.170120 183.688843,58.234493 
	C190.498581,61.646439 196.998337,65.326324 203.787994,69.146317 
	C204.052002,69.609337 204.026123,69.932266 203.939499,70.737335 
z"/>
<path fill="#FFFFFF" opacity="1.000000" stroke="none" 
	d="
M163.021194,71.121857 
	C163.897430,72.686333 164.328278,74.833633 165.492020,76.454849 
	C167.987915,79.931900 170.862061,83.137428 173.793274,86.713158 
	C173.757004,87.252815 173.508789,87.533455 173.012695,87.947250 
	C166.338821,85.083923 163.878021,79.463730 162.849823,72.573502 
	C162.930664,71.949005 162.919327,71.707611 163.021194,71.121857 
z"/>
<path fill="#FFFFFF" opacity="1.000000" stroke="none" 
	d="
M182.022980,82.677155 
	C180.345718,82.222771 178.696106,81.434402 177.008301,80.301079 
	C178.528564,80.334526 180.087021,80.712921 181.862915,81.382462 
	C182.070435,81.896782 182.060532,82.119972 182.022980,82.677155 
z"/>



<path fill="#FFFFFF" opacity="1.000000" stroke="none" 
	d="
M148.987213,14.833654 
	C147.949432,14.105035 146.911667,13.376416 146.175735,12.287277 
	C147.153625,12.082705 147.829666,12.238653 148.776855,12.914757 
	C149.027740,13.901160 149.007477,14.367407 148.987213,14.833654 
z"/>
<path fill="#FFFFFF" opacity="1.000000" stroke="none" 
	d="
M149.273224,14.994403 
	C149.007477,14.367407 149.027740,13.901160 149.079407,13.086260 
	C149.545242,12.666557 149.979706,12.595510 150.700577,12.700891 
	C150.964203,13.447811 150.941406,14.018302 150.869537,15.014349 
	C150.400055,15.344987 149.979645,15.250069 149.273224,14.994403 
z"/>

<path fill="#FFFFFF" opacity="1.000000" stroke="none" 
	d="
M178.997559,27.676203 
	C166.746078,28.931894 154.721634,28.365047 142.707443,25.032684 
	C136.461151,23.300152 129.609329,23.750729 122.332230,23.152550 
	C121.293640,23.107767 120.953865,23.125576 120.614090,23.143385 
	C119.202324,19.739971 121.834343,21.157461 123.027946,21.234581 
	C126.647926,21.468473 130.257553,21.862591 134.259232,21.342718 
	C132.324356,20.054420 130.389465,18.766123 128.234314,17.223063 
	C128.242050,16.680658 128.470047,16.393019 128.953674,15.985140 
	C138.443649,22.890406 149.290710,23.608076 160.284454,23.941772 
	C166.242722,24.122622 172.190262,24.656507 178.582367,25.152897 
	C179.013779,25.960785 179.005432,26.646919 178.997559,27.676203 
z"/>
<path fill="#FFFFFF" opacity="1.000000" stroke="none" 
	d="
M152.032166,33.178692 
	C162.804886,34.545177 173.535629,34.598034 184.605408,32.141888 
	C185.295883,32.616089 185.567383,33.099194 185.555801,33.842628 
	C185.177917,34.428913 185.083099,34.754868 184.988281,35.080822 
	C184.988281,35.080822 184.988235,35.005474 185.024597,35.015869 
	C177.588776,35.339565 170.118713,35.783081 162.643402,35.905724 
	C159.394516,35.959026 156.134827,35.352665 152.438782,34.679256 
	C152.009079,33.934631 152.020615,33.556664 152.032166,33.178692 
z"/>
<path fill="#FFFFFF" opacity="1.000000" stroke="none" 
	d="
M190.461365,28.576843 
	C190.402008,29.038542 190.169266,29.320534 189.936523,29.602528 
	C189.761200,29.418188 189.585892,29.233845 189.410583,29.049503 
	C189.703049,28.832048 189.995514,28.614594 190.461365,28.576843 
z"/>



<path fill="#FFFFFF" opacity="1.000000" stroke="none" 
	d="
M72.900269,248.999268 
	C72.064674,249.063950 71.307922,248.676636 70.449860,247.841827 
	C70.714630,247.183960 71.080711,246.973618 71.446793,246.763275 
	C71.929848,246.902969 72.412895,247.042664 73.006653,247.411255 
	C73.071281,247.942520 73.025200,248.244888 72.900269,248.999268 
z"/>
<path fill="#FFFFFF" opacity="1.000000" stroke="none" 
	d="
M102.544266,191.903870 
	C102.423134,191.239944 102.668327,190.471939 103.089798,189.445374 
	C103.147591,190.057816 103.029091,190.928802 102.544266,191.903870 
z"/>
<path fill="#FFFFFF" opacity="1.000000" stroke="none" 
	d="
M112.029556,185.762329 
	C111.949425,185.464310 112.180687,185.239761 112.323341,185.167282 
	C112.578102,185.391037 112.690208,185.687271 112.871063,186.452789 
	C112.663109,186.634811 112.386398,186.347580 112.029556,185.762329 
z"/>
<path fill="#FFFFFF" opacity="1.000000" stroke="none" 
	d="
M33.194244,191.959412 
	C34.218700,195.566711 38.219421,198.455826 35.394714,202.714645 
	C33.668056,199.296661 32.377666,196.050705 31.589119,192.384949 
	C32.458721,191.963257 32.826485,191.961334 33.194244,191.959412 
z"/>
<path fill="#FFFFFF" opacity="1.000000" stroke="none" 
	d="
M26.581505,180.257980 
	C28.557327,182.857773 30.143116,185.695129 31.350590,188.777695 
	C29.378672,186.180450 27.785072,183.337997 26.581505,180.257980 
z"/>
<path fill="#FFFFFF" opacity="1.000000" stroke="none" 
	d="
M35.520248,204.416641 
	C36.209049,203.831451 36.953156,203.647079 37.697258,203.462708 
	C38.140640,206.554413 38.584023,209.646103 38.489365,212.643311 
	C37.159401,209.971680 36.367474,207.394577 35.520248,204.416641 
z"/>
<path fill="#FFFFFF" opacity="1.000000" stroke="none" 
	d="
M40.890778,222.912140 
	C41.645851,222.609589 42.909317,222.610489 42.989952,222.919754 
	C43.476517,224.786087 43.692322,226.723053 44.035358,229.089066 
	C43.316769,229.233765 42.065193,229.091385 41.897091,228.587509 
	C41.338894,226.914429 41.170464,225.111328 40.890778,222.912140 
z"/>
<path fill="#FFFFFF" opacity="1.000000" stroke="none" 
	d="
M38.615746,214.369858 
	C39.275444,213.904266 40.835243,213.678284 40.845436,213.734314 
	C41.327461,216.383072 41.675102,219.056274 41.503246,221.622437 
	C40.243294,219.259109 39.518124,217.000076 38.615746,214.369858 
z"/>
<path fill="#FFFFFF" opacity="1.000000" stroke="none" 
	d="
M24.621727,176.305450 
	C25.898808,177.190521 26.827686,178.363983 27.363659,179.778381 
	C26.071680,178.877502 25.172602,177.735672 24.621727,176.305450 
z"/>
<path fill="#FFFFFF" opacity="1.000000" stroke="none" 
	d="
M22.671227,173.477631 
	C23.110094,173.084061 23.624302,173.048904 24.525251,173.012177 
	C25.215040,173.869095 25.518087,174.727585 25.395409,175.801453 
	C24.228643,175.289902 23.487606,174.562988 22.671227,173.477631 
z"/>
<path fill="#FFFFFF" opacity="1.000000" stroke="none" 
	d="
M30.567604,189.238037 
	C31.529873,189.373413 32.086784,189.723221 32.167679,190.555374 
	C31.321522,191.074554 30.951374,191.111404 30.581226,191.148254 
	C30.441565,190.582993 30.301905,190.017731 30.567604,189.238037 
z"/>
<path fill="#FFFFFF" opacity="1.000000" stroke="none" 
	d="
M30.547205,191.321442 
	C30.951374,191.111404 31.321522,191.074554 32.245029,190.966156 
	C33.061577,191.036316 33.213360,191.255234 33.223991,191.755402 
	C32.826485,191.961334 32.458721,191.963257 31.539345,191.972855 
	C30.738806,191.907272 30.580624,191.745300 30.547205,191.321442 
z"/>
<path fill="#FFFFFF" opacity="1.000000" stroke="none" 
	d="
M44.270325,231.593567 
	C43.834522,231.977386 43.492615,231.929596 42.645058,231.769379 
	C42.456390,230.828506 42.773369,230.000046 43.571007,229.304657 
	C44.155849,230.012482 44.260033,230.587219 44.270325,231.593567 
z"/>
<path fill="#FFFFFF" opacity="1.000000" stroke="none" 
	d="
M35.101128,108.650345 
	C39.213242,119.264854 43.571930,129.792862 47.338490,140.528610 
	C49.369427,146.317352 50.386803,152.461670 51.053997,158.585617 
	C45.347160,142.657913 39.640324,126.730202 34.156513,110.273453 
	C34.620068,109.379723 34.860596,109.015030 35.101128,108.650345 
z"/>
<path fill="#FFFFFF" opacity="1.000000" stroke="none" 
	d="
M60.023388,193.196426 
	C58.682045,189.086777 57.255848,185.002396 56.021526,180.860855 
	C54.583321,176.035172 53.312939,171.159500 52.263454,166.000961 
	C53.043507,165.795654 53.529835,165.894913 54.016163,165.994156 
	C55.759766,172.984543 57.561874,179.961227 59.204884,186.975174 
	C59.604305,188.680313 59.480289,190.508087 59.790382,192.706604 
	C59.983814,193.133759 60.023388,193.196426 60.023388,193.196426 
z"/>
<path fill="#FFFFFF" opacity="1.000000" stroke="none" 
	d="
M80.470871,150.904144 
	C81.897850,155.763184 83.435677,160.594528 84.663376,165.503418 
	C84.926147,166.554062 84.064613,167.885864 83.346573,168.796997 
	C81.328224,162.921722 79.684326,157.337601 78.446747,151.369766 
	C79.392326,150.958740 79.931602,150.931442 80.470871,150.904144 
z"/>


<path fill="#FFFFFF" opacity="1.000000" stroke="none" 
	d="
M80.376793,150.514923 
	C79.931602,150.931442 79.392326,150.958740 78.448257,150.994019 
	C77.242126,148.907791 76.440781,146.813629 75.535141,144.357849 
	C76.312355,144.047211 77.774292,143.802536 77.976479,144.199493 
	C78.933739,146.078888 79.546928,148.133499 80.376793,150.514923 
z"/>
<path fill="#FFFFFF" opacity="1.000000" stroke="none" 
	d="
M70.777977,131.851166 
	C71.759644,131.978470 72.552803,132.456055 73.153145,133.482880 
	C72.644371,134.343872 72.328423,134.655624 72.012482,134.967377 
	C71.538147,134.045395 71.063805,133.123428 70.777977,131.851166 
z"/>
<path fill="#FFFFFF" opacity="1.000000" stroke="none" 
	d="
M72.109421,135.506912 
	C72.328423,134.655624 72.644371,134.343872 73.274826,133.909637 
	C73.908920,134.323059 74.228500,134.858978 74.552437,135.709778 
	C73.773315,136.031921 72.989830,136.039185 72.109421,135.506912 
z"/>

<path fill="#FFFFFF" opacity="1.000000" stroke="none" 
	d="
M74.496452,139.313980 
	C75.315613,139.916702 75.661240,140.828110 75.485260,141.643188 
	C74.650070,140.905457 74.336494,140.264069 74.496452,139.313980 
z"/>
<path fill="#FFFFFF" opacity="1.000000" stroke="none" 
	d="
M68.370110,126.663040 
	C68.078850,126.075172 68.288857,125.689262 68.787819,125.141212 
	C69.224350,125.123192 69.371918,125.267326 69.537903,125.720184 
	C69.328011,126.307602 69.099693,126.586296 68.370110,126.663040 
z"/>
<path fill="#FFFFFF" opacity="1.000000" stroke="none" 
	d="
M34.621380,108.523560 
	C34.860596,109.015030 34.620068,109.379723 34.088577,109.900993 
	C33.912289,109.503975 34.026962,108.950378 34.621380,108.523560 
z"/>
<path fill="#FFFFFF" opacity="1.000000" stroke="none" 
	d="
M74.524338,137.403000 
	C75.210777,137.701263 75.389580,137.972717 75.272758,138.631927 
	C74.656990,138.471848 74.336845,137.924026 74.524338,137.403000 
z"/>
<path fill="#FFFFFF" opacity="1.000000" stroke="none" 
	d="
M59.949741,193.119186 
	C59.915668,193.104614 60.116032,193.170105 60.116032,193.170105 
	C60.116032,193.170105 59.963448,193.000153 59.993416,193.098297 
	C60.023388,193.196426 59.983814,193.133759 59.949741,193.119186 
z"/>
<path fill="#FFFFFF" opacity="1.000000" stroke="none" 
	d="
M145.059998,47.053837 
	C148.820267,47.995739 152.176620,48.879570 155.865875,49.851055 
	C148.372650,51.970428 128.457764,44.301399 123.963020,38.118977 
	C130.605453,40.968403 137.630768,43.982082 145.059998,47.053837 
z"/>
<path fill="#FFFFFF" opacity="1.000000" stroke="none" 
	d="
M151.650909,33.026810 
	C152.020615,33.556664 152.009079,33.934631 152.011322,34.595879 
	C145.227219,33.749031 138.429337,32.618904 131.523483,31.034067 
	C131.375061,30.247068 131.334595,29.914782 131.294128,29.582497 
	C137.952637,30.679976 144.611160,31.777454 151.650909,33.026810 
z"/>

<path fill="#FFFFFF" opacity="1.000000" stroke="none" 
	d="
M159.422485,50.098934 
	C160.789917,49.485752 162.178391,49.405209 163.566864,49.324661 
	C163.576996,49.760296 163.587112,50.195934 163.597229,50.631569 
	C162.212662,50.631569 160.828079,50.631569 159.422485,50.098934 
z"/>
<path fill="#FFFFFF" opacity="1.000000" stroke="none" 
	d="
M164.916077,50.734928 
	C164.868317,50.075809 165.231964,49.403572 165.775467,49.190884 
	C166.238922,49.009521 166.909164,49.356544 168.809570,49.728489 
	C166.874374,50.406506 166.139938,50.663822 164.916077,50.734928 
z"/>
<path fill="#FFFFFF" opacity="1.000000" stroke="none" 
	d="
M171.907471,50.398605 
	C171.989395,50.688980 172.407684,51.179001 172.551498,51.862480 
	C172.265961,51.570042 172.254898,51.084145 171.907471,50.398605 
z"/>
<path fill="#FFFFFF" opacity="1.000000" stroke="none" 
	d="
M42.565216,60.152649 
	C43.588642,71.987801 44.227634,83.536003 38.355400,94.414963 
	C37.475929,94.191673 36.501312,93.625084 36.538452,93.548378 
	C41.469955,83.363205 40.989716,72.467499 40.883701,61.607998 
	C40.878025,61.026554 41.658344,60.437443 42.565216,60.152649 
z"/>
<path fill="#FFFFFF" opacity="1.000000" stroke="none" 
	d="
M41.603378,51.169624 
	C42.367855,53.848572 42.680603,56.239929 43.028145,59.083675 
	C42.381401,59.531353 41.699863,59.526638 41.018326,59.521923 
	C41.062767,56.641956 41.107208,53.761993 41.603378,51.169624 
z"/>
<path fill="#FFFFFF" opacity="1.000000" stroke="none" 
	d="
M92.823883,105.926643 
	C92.385307,106.209755 92.110710,106.163490 91.422363,106.059860 
	C91.253349,104.089722 91.498077,102.176941 91.845291,99.866074 
	C92.595917,99.725822 93.818817,100.030457 93.802231,100.234207 
	C93.655884,102.032082 93.289299,103.812027 92.823883,105.926643 
z"/>
<path fill="#FFFFFF" opacity="1.000000" stroke="none" 
	d="
M88.524963,129.202545 
	C90.979332,134.256165 92.994270,139.522629 94.482674,144.670090 
	C91.999268,139.505859 90.042404,134.460632 88.524963,129.202545 
z"/>
<path fill="#FFFFFF" opacity="1.000000" stroke="none" 
	d="
M85.958397,126.395462 
	C86.376755,126.014153 86.865463,125.994339 87.721031,125.980804 
	C88.304008,126.512947 88.520142,127.038803 88.353348,127.793121 
	C87.323204,127.600044 86.675980,127.178505 85.958397,126.395462 
z"/>
<path fill="#FFFFFF" opacity="1.000000" stroke="none" 
	d="
M87.817078,128.419266 
	C88.413643,128.113052 88.839890,128.191544 89.138397,128.656433 
	C88.556023,128.963196 88.101387,128.883591 87.817078,128.419266 
z"/>
<path fill="#FFFFFF" opacity="1.000000" stroke="none" 
	d="
M125.602432,149.983887 
	C124.992416,149.963943 124.684967,149.821167 124.315521,149.141815 
	C124.180130,148.380981 124.106743,148.156723 124.033363,147.932480 
	C124.033363,147.932480 124.054672,148.016418 124.018158,148.038757 
	C131.230118,140.667603 138.456604,133.252380 145.738586,125.892059 
	C148.415756,123.186089 151.224136,120.609909 154.411896,118.409698 
	C154.901993,119.233978 154.952866,119.623077 155.003723,120.012177 
	C147.012466,128.163010 139.016327,136.309082 131.033798,144.468475 
	C129.299179,146.241531 127.613312,148.062286 125.602432,149.983887 
z"/>
<path fill="#FFFFFF" opacity="1.000000" stroke="none" 
	d="
M155.304443,119.934387 
	C154.952866,119.623077 154.901993,119.233978 154.760162,118.262375 
	C154.669189,117.679878 154.682144,117.713768 154.666321,117.694092 
	C155.221985,117.780190 155.793472,117.885956 156.798981,118.034264 
	C156.690384,118.670067 156.147781,119.263329 155.304443,119.934387 
z"/>
<path fill="#FFFFFF" opacity="1.000000" stroke="none" 
	d="
M58.448692,44.953278 
	C58.252304,44.409363 58.504902,44.004284 58.858536,43.382324 
	C76.998383,43.608093 93.121834,38.270695 107.813858,27.331797 
	C108.660851,27.750408 109.018982,27.975611 109.377113,28.200815 
	C94.771652,40.468735 77.772667,45.583641 58.448692,44.953278 
z"/>
<path fill="#FFFFFF" opacity="1.000000" stroke="none" 
	d="
M109.511932,27.836533 
	C109.018982,27.975611 108.660851,27.750408 108.145874,27.248178 
	C108.166664,26.834005 108.344292,26.696859 108.770927,26.786509 
	C109.228874,27.166286 109.437813,27.319267 109.511932,27.836533 
z"/>
<path fill="#FFFFFF" opacity="1.000000" stroke="none" 
	d="
M71.196617,246.480225 
	C71.080711,246.973618 70.714630,247.183960 70.183868,247.665680 
	C63.156059,244.936630 56.119316,243.957977 48.384308,246.084442 
	C49.066460,245.285919 50.080170,244.113541 51.304756,243.819565 
	C58.110836,242.185684 64.677803,243.098984 71.196617,246.480225 
z"/>
<path fill="#FFFFFF" opacity="1.000000" stroke="none" 
	d="
M100.265152,127.353409 
	C100.614372,126.983696 101.020668,126.991516 101.731766,126.995468 
	C105.939430,135.939178 105.614166,145.130859 103.918465,154.796799 
	C102.682831,145.497208 101.502541,136.614075 100.265152,127.353409 
z"/>
<path fill="#FFFFFF" opacity="1.000000" stroke="none" 
	d="
M108.959686,125.370499 
	C110.672707,126.906151 112.406120,128.829498 114.096848,131.147278 
	C113.086266,131.217804 111.713333,131.182297 111.234627,130.510040 
	C110.233345,129.103958 109.703537,127.362122 108.959686,125.370499 
z"/>
<path fill="#FFFFFF" opacity="1.000000" stroke="none" 
	d="
M94.018456,189.830505 
	C94.866341,189.644882 95.812172,189.805695 96.878448,190.841949 
	C96.899399,192.355698 96.799911,192.994019 96.700417,193.632339 
	C95.839081,192.480545 94.977745,191.328735 94.018456,189.830505 
z"/>
<path fill="#FFFFFF" opacity="1.000000" stroke="none" 
	d="
M96.719910,193.952148 
	C96.799911,192.994019 96.899399,192.355698 97.041222,191.234558 
	C97.669235,192.052338 98.254913,193.352966 98.404770,194.835236 
	C97.559097,194.768570 97.149254,194.520248 96.719910,193.952148 
z"/>
<path fill="#FFFFFF" opacity="1.000000" stroke="none" 
	d="
M116.304001,100.838531 
	C115.753883,100.654259 115.539513,100.402557 115.098007,100.035645 
	C116.877380,96.100067 118.883888,92.279686 121.076973,88.188835 
	C121.555382,87.923462 121.847206,87.928558 122.575363,87.969650 
	C120.887711,92.260796 118.763733,96.515953 116.304001,100.838531 
z"/>
<path fill="#FFFFFF" opacity="1.000000" stroke="none" 
	d="
M184.081787,57.652374 
	C182.263519,55.937557 180.493423,53.871586 178.369324,51.673298 
	C178.451096,51.339119 178.886871,51.137253 179.577469,50.978905 
	C181.264847,53.115349 182.697403,55.208282 184.081787,57.652374 
z"/>
<path fill="#FFFFFF" opacity="1.000000" stroke="none" 
	d="
M169.345032,67.744072 
	C168.680756,67.621574 168.320404,67.195824 167.958374,66.451035 
	C167.996948,65.833389 168.037186,65.534790 168.197540,64.799652 
	C168.761429,65.389023 169.205185,66.414925 169.345032,67.744072 
z"/>
<path fill="#FFFFFF" opacity="1.000000" stroke="none" 
	d="
M105.899536,176.676636 
	C105.671600,177.053207 105.377457,177.094238 104.644791,177.213715 
	C102.946732,176.019989 101.687202,174.747849 100.694580,173.222107 
	C102.585442,174.092697 104.209389,175.216888 105.899536,176.676636 
z"/>

<path fill="#FFFFFF" opacity="1.000000" stroke="none" 
	d="
M152.963013,95.365898 
	C153.944244,95.394440 154.929214,95.832085 155.988800,96.631866 
	C155.031204,96.587669 153.998993,96.181335 152.963013,95.365898 
z"/>
<path fill="#FFFFFF" opacity="1.000000" stroke="none" 
	d="
M175.400848,78.311844 
	C172.941025,75.279976 170.872162,71.987007 168.885559,68.318512 
	C171.242462,71.312241 173.517136,74.681488 175.400848,78.311844 
z"/>
<path fill="#FFFFFF" opacity="1.000000" stroke="none" 
	d="
M177.147232,79.479019 
	C176.643387,79.875023 176.230484,79.720001 175.619690,79.271187 
	C176.027267,78.960922 176.632721,78.944458 177.147232,79.479019 
z"/>
</svg>